<svg width="22" height="20" viewBox="0 0 22 20" fill="none" xmlns="http://www.w3.org/2000/svg">
<path fill-rule="evenodd" clip-rule="evenodd" d="M4.25046 9.89351L5.46666 8.67731L6.52732 9.73797L3.52489 12.7404L0.522461 9.73797L1.58312 8.67731L2.77615 9.87034C2.85928 4.69651 7.07479 0.25 12.2629 0.25C17.5029 0.25 21.7508 4.4979 21.7508 9.73796C21.7508 14.978 17.5029 19.2259 12.2629 19.2259H11.5129V17.7259H12.2629C16.6745 17.7259 20.2508 14.1496 20.2508 9.73796C20.2508 5.32633 16.6745 1.75 12.2629 1.75C7.85165 1.75 4.27557 5.32567 4.2749 9.73673L4.25046 9.89351ZM13.0127 4.13342V9.42719L16.236 12.6505L15.1753 13.7112L11.5127 10.0485V4.13342H13.0127Z" fill="#50BBB0"/>
</svg>
