<svg width="22" height="14" viewBox="0 0 22 14" fill="none" xmlns="http://www.w3.org/2000/svg">
<path fill-rule="evenodd" clip-rule="evenodd" d="M11.6797 1.75C9.74521 1.75 8.06228 2.83208 7.20525 4.42754L6.92126 4.9562L6.34318 4.79509C6.03408 4.70894 5.70755 4.66265 5.36898 4.66265C3.37027 4.66265 1.75 6.28293 1.75 8.28163C1.75 10.2803 3.37027 11.9006 5.36898 11.9006H17.0196C18.4821 11.9006 19.6677 10.715 19.6677 9.25252C19.6677 7.89841 18.6507 6.78074 17.3392 6.62344L16.7793 6.55628L16.6883 5.99972C16.2945 3.58951 14.2012 1.75 11.6797 1.75ZM6.17623 3.22605C7.34985 1.43503 9.37592 0.25 11.6797 0.25C14.7638 0.25 17.3507 2.37256 18.0616 5.23657C19.8484 5.69903 21.1677 7.32125 21.1677 9.25252C21.1677 11.5434 19.3105 13.4006 17.0196 13.4006H5.36898C2.54185 13.4006 0.25 11.1088 0.25 8.28163C0.25 5.4545 2.54185 3.16265 5.36898 3.16265C5.64329 3.16265 5.91295 3.1843 6.17623 3.22605ZM11.4585 6.69329V10.4879H9.9585V6.69522L8.76769 7.88603L7.70703 6.82537L10.7095 3.82294L13.7119 6.82537L12.6512 7.88603L11.4585 6.69329Z" fill="#50BBB0"/>
</svg>
