<svg width="18" height="16" viewBox="0 0 18 16" fill="none" xmlns="http://www.w3.org/2000/svg">
<path fill-rule="evenodd" clip-rule="evenodd" d="M14.9222 1.75C14.264 1.75 13.7305 2.28357 13.7305 2.94177C13.7305 3.59996 14.264 4.13354 14.9222 4.13354C15.5804 4.13354 16.114 3.59996 16.114 2.94177C16.114 2.28357 15.5804 1.75 14.9222 1.75ZM12.2305 2.94177C12.2305 1.45515 13.4356 0.25 14.9222 0.25C16.4089 0.25 17.614 1.45515 17.614 2.94177C17.614 4.42839 16.4089 5.63354 14.9222 5.63354C14.1256 5.63354 13.4098 5.2875 12.917 4.73753L5.92819 7.35834C5.9515 7.50082 5.96362 7.64706 5.96362 7.79614C5.96362 7.94524 5.95149 8.09151 5.92818 8.23402L12.917 10.8548C13.4099 10.3049 14.1256 9.95883 14.9222 9.95883C16.4089 9.95883 17.614 11.164 17.614 12.6506C17.614 14.1372 16.4089 15.3424 14.9222 15.3424C13.4356 15.3424 12.2305 14.1372 12.2305 12.6506C12.2305 12.5015 12.2426 12.3552 12.2659 12.2127L5.27712 9.59187C4.78427 10.1419 4.06847 10.4879 3.27185 10.4879C1.78522 10.4879 0.580078 9.28276 0.580078 7.79614C0.580078 6.30952 1.78522 5.10437 3.27185 5.10437C4.0685 5.10437 4.78432 5.45045 5.27717 6.00047L12.2659 3.37969C12.2426 3.23717 12.2305 3.09089 12.2305 2.94177ZM2.08008 7.79614C2.08008 7.13794 2.61365 6.60437 3.27185 6.60437C3.93004 6.60437 4.46362 7.13794 4.46362 7.79614C4.46362 8.45433 3.93004 8.98791 3.27185 8.98791C2.61365 8.98791 2.08008 8.45433 2.08008 7.79614ZM13.7305 12.6506C13.7305 11.9924 14.264 11.4588 14.9222 11.4588C15.5804 11.4588 16.114 11.9924 16.114 12.6506C16.114 13.3088 15.5804 13.8424 14.9222 13.8424C14.264 13.8424 13.7305 13.3088 13.7305 12.6506Z" fill="#50BBB0"/>
</svg>
