<svg width="20" height="20" viewBox="0 0 20 20" fill="none" xmlns="http://www.w3.org/2000/svg">
<path fill-rule="evenodd" clip-rule="evenodd" d="M4.29837 0.25H5.04838H14.7573H15.5073V1V6.07532H18.6411H19.3911V6.82532V15.5633V16.3133H18.6411H15.5073V18.476V19.226H14.7573H5.04838H4.29837V18.476V16.3133H1.16505H0.415039V15.5633V6.82532V6.07532H1.16505H4.29837V1V0.25ZM5.79862 16.3133V14.8133L5.79838 12.4298H14.0073V17.726H5.79838L5.79862 16.3133ZM4.29837 14.8133H1.91505V7.57532H17.8911V14.8133H15.5073V11.6798V10.9298H14.7573H5.04838H4.29837V11.6798V14.8133ZM5.79838 1.75V6.07531H14.0073V1.75H5.79838Z" fill="#50BBB0"/>
</svg>
