<svg version="1.1" id="Layer_1" xmlns="http://www.w3.org/2000/svg" xmlns:xlink="http://www.w3.org/1999/xlink" x="0px" y="0px"
	 width="34px" height="34px" viewBox="0 0 34 34" enable-background="new 0 0 34 34" xml:space="preserve">
<path d="M8.5,9.7H1.2C0.5,9.7,0,10.2,0,10.9v21.9C0,33.5,0.5,34,1.2,34h7.3c0.7,0,1.2-0.5,1.2-1.2V10.9
	C9.7,10.3,9.2,9.7,8.5,9.7z M8.5,32.844H1.2V11.167h7.3V32.844z M20.6,4.9h-7.3c-0.7,0-1.2,0.5-1.2,1.2v26.7c0,0.7,0.5,1.2,1.2,1.2
	h7.3c0.7,0,1.2-0.5,1.2-1.2V6.1C21.9,5.4,21.3,4.9,20.6,4.9z M20.6,32.875h-7.3V6.208h7.3V32.875z M32.8,0h-7.3
	c-0.7,0-1.2,0.5-1.2,1.2v31.6c0,0.7,0.5,1.2,1.2,1.2h7.3c0.7,0,1.2-0.5,1.2-1.2V1.2C34,0.5,33.5,0,32.8,0z M32.8,32.906h-7.3V1.25
	h7.3V32.906z"/>
</svg>
