<svg version="1.1" id="Layer_1" xmlns="http://www.w3.org/2000/svg" xmlns:xlink="http://www.w3.org/1999/xlink" x="0px" y="0px"
	 width="28px" height="24px" viewBox="2 4 28 24" enable-background="new 2 4 28 24" xml:space="preserve">
<path d="M19.414,27.414l10-10c0.781-0.781,0.781-2.047,0-2.828l-10-10c-0.781-0.781-2.047-0.781-2.828,0
	c-0.781,0.781-0.781,2.047,0,2.828L23.172,14H4c-1.105,0-2,0.895-2,2c0,1.105,0.895,2,2,2h19.172l-6.586,6.586
	C16.196,24.977,16,25.488,16,26s0.195,1.023,0.586,1.414C17.367,28.195,18.633,28.195,19.414,27.414z"/>
</svg>
