<svg version="1.1" id="Layer_1" xmlns="http://www.w3.org/2000/svg" xmlns:xlink="http://www.w3.org/1999/xlink" x="0px" y="0px"
	 width="34.357px" height="24px" viewBox="0 4 34.357 24" enable-background="new 0 4 34.357 24" xml:space="preserve">
<path d="M7,4H1C0.45,4,0,4.45,0,5v22c0,0.55,0.45,1,1,1h6c0.55,0,1-0.45,1-1V5C8,4.45,7.55,4,7,4z M6,10H2V8h4V10z"/>
<path d="M17,4h-6c-0.55,0-1,0.45-1,1v22c0,0.55,0.45,1,1,1h6c0.55,0,1-0.45,1-1V5C18,4.45,17.55,4,17,4z M16,10h-4V8h4V10z"/>
<path d="M23.909,5.546l-5.358,2.7c-0.491,0.247-0.691,0.852-0.443,1.343l9,17.861c0.246,0.491,0.852,0.69,1.343,0.442l5.358-2.699
	c0.49-0.248,0.69-0.853,0.442-1.344L25.252,5.989C25.005,5.498,24.4,5.298,23.909,5.546z"/>
</svg>
