<svg version="1.1" id="Layer_1" xmlns="http://www.w3.org/2000/svg" xmlns:xlink="http://www.w3.org/1999/xlink" x="0px" y="0px"
	 width="32px" height="26px" viewBox="0 4 32 26" enable-background="new 0 4 32 26" xml:space="preserve">
<path d="M9.5,19c0,3.59,2.91,6.5,6.5,6.5s6.5-2.91,6.5-6.5s-2.91-6.5-6.5-6.5S9.5,15.41,9.5,19z M30,8h-7c-0.5-2-1-4-3-4h-8
	c-2,0-2.5,2-3,4H2c-1.1,0-2,0.9-2,2v18c0,1.1,0.9,2,2,2h28c1.1,0,2-0.9,2-2V10C32,8.9,31.1,8,30,8z M16,27.875
	c-4.902,0-8.875-3.973-8.875-8.875c0-4.902,3.973-8.875,8.875-8.875c4.902,0,8.875,3.973,8.875,8.875
	C24.875,23.902,20.902,27.875,16,27.875z M30,14h-4v-2h4V14z"/>
</svg>
