<svg xmlns="http://www.w3.org/2000/svg" viewBox="0 0 12.2 15" width="12.2" height="15">
<path d="M12.2,3.8c0-1-0.4-2-1-2.7c-1.4-1.5-3.7-1.5-5,0L3.3,4c-0.8,0.8-1.1,2-1,3.2L1,8.6c-0.7,0.7-1,1.7-1,2.7s0.4,2,1,2.7
	C1.7,14.6,2.6,15,3.6,15c0.9,0,1.8-0.4,2.5-1.1L8.8,11c0.8-0.8,1.1-2,1-3.2l1.3-1.4C11.8,5.7,12.2,4.8,12.2,3.8z M7.6,8.5
	c-0.9,1-2.5,1-3.4,0c-0.2-0.2-0.6-0.2-0.8,0C3.2,8.6,3.2,8.7,3.2,8.9c0,0.2,0.1,0.3,0.2,0.4C4,10,4.9,10.4,5.8,10.4
	c1,0,1.9-0.4,2.5-1.1L8.6,9C8.5,9.4,8.3,9.8,8,10.1L5.3,13c-0.9,1-2.5,1-3.4,0c-0.9-1-0.9-2.6,0-3.6l2.8-2.9c0.9-1,2.5-1,3.4,0
	c0.2,0.2,0.6,0.2,0.8,0C9,6.4,9,6.2,9,6.1C9,5.9,9,5.7,8.9,5.6C8.2,4.9,7.3,4.5,6.3,4.5S4.5,4.9,3.8,5.6L3.5,5.9
	c0.1-0.4,0.3-0.8,0.6-1.1l2.8-2.9c0.9-1,2.5-1,3.4,0c0.9,1,0.9,2.6,0,3.6L7.6,8.5z"/></svg>
