<svg version="1.1" id="Layer_1" xmlns="http://www.w3.org/2000/svg" xmlns:xlink="http://www.w3.org/1999/xlink" x="0px" y="0px"
	 width="28px" height="32px" viewBox="2 0 28 32" enable-background="new 2 0 28 32" xml:space="preserve">
<path d="M29,4h-9c0-2.209-1.791-4-4-4s-4,1.791-4,4H3C2.448,4,2,4.448,2,5v26c0,0.553,0.448,1,1,1h26c0.552,0,1-0.447,1-1V5
	C30,4.448,29.552,4,29,4z M16,2c1.105,0,2,0.895,2,2s-0.895,2-2,2c-1.105,0-2-0.895-2-2S14.895,2,16,2z M28,30H4V6h4v3
	c0,0.552,0.448,1,1,1h14c0.552,0,1-0.448,1-1V6h4V30z"/>
<path d="M14,26.828l-6.414-7.414l1.828-1.828L14,21.172l8.586-7.586l1.829,1.828L14,26.828z"/>
</svg>
