<svg version="1.1" id="Layer_1" xmlns="http://www.w3.org/2000/svg" xmlns:xlink="http://www.w3.org/1999/xlink" x="0px" y="0px" width="24px" height="24px" viewBox="0 0 24 24" enable-background="new 0 0 24 24" xml:space="preserve">
<path d="M23,7.3c-1.3-3-3.4-5.1-6.4-6.4c-1.5-0.6-3-1-4.7-1c-1.6,0-3.2,0.3-4.7,1C4.4,2.2,2.2,4.4,0.9,7.3 C0.3,8.8,0,10.4,0,12c0,1.6,0.3,3.2,0.9,4.7c1.3,3,3.4,5.1,6.4,6.4c1.5,0.6,3,1,4.7,1c1.6,0,3.2-0.3,4.7-1c3-1.3,5.1-3.4,6.4-6.4 c0.6-1.5,1-3,1-4.7C24,10.4,23.7,8.8,23,7.3z M21.1,17.3c-0.9,1.6-2.2,2.9-3.9,3.8c-1.6,0.9-3.4,1.4-5.3,1.4c-1.4,0-2.8-0.3-4.1-0.8 c-1.3-0.6-2.4-1.3-3.4-2.2c-0.9-0.9-1.7-2.1-2.2-3.4c-0.6-1.3-0.8-2.7-0.8-4.1c0-1.9,0.5-3.7,1.4-5.3c0.9-1.6,2.2-2.9,3.8-3.8 c1.6-0.9,3.4-1.4,5.3-1.4s3.7,0.5,5.3,1.4c1.6,0.9,2.9,2.2,3.9,3.8c0.9,1.6,1.4,3.4,1.4,5.3C22.5,13.9,22.1,15.7,21.1,17.3z M16.4,15.6c0.3,0.3,0.3,0.7,0,1c-0.3,0.3-0.7,0.3-1,0l-3.9-3.9c-0.2-0.2-0.2-0.4-0.2-0.6c0,0,0-0.1,0-0.1V5.1 c0-0.4,0.3-0.7,0.7-0.7c0.4,0,0.8,0.3,0.8,0.7v6.8L16.4,15.6z"/>
</svg>
