<svg version="1.1" xmlns="http://www.w3.org/2000/svg" xmlns:xlink="http://www.w3.org/1999/xlink" x="0px" y="0px"
	 width="29px" height="29px" viewBox="0 0 29 29" enable-background="new 0 0 29 29" xml:space="preserve">
<path d="M27.5,29c-0.4,0-0.8-0.1-1.1-0.4l-26-26C-0.1,2-0.1,1,0.4,0.4C1-0.1,2-0.1,2.6,0.4l26,26
	c0.6,0.6,0.6,1.5,0,2.1C28.3,28.9,27.9,29,27.5,29z"/>
<path d="M1.5,29c-0.4,0-0.8-0.1-1.1-0.4c-0.6-0.6-0.6-1.5,0-2.1l26-26c0.6-0.6,1.5-0.6,2.1,0c0.6,0.6,0.6,1.5,0,2.1
	l-26,26C2.3,28.9,1.9,29,1.5,29z"/>
</svg>
