<svg version="1.1" id="Layer_1" xmlns="http://www.w3.org/2000/svg" xmlns:xlink="http://www.w3.org/1999/xlink" x="0px" y="0px"
	 width="13px" height="12.999px" viewBox="3.5 4 13 12.999" enable-background="new 3.5 4 13 12.999" xml:space="preserve">
<path d="M10.707,10.5l5.646-5.646c0.193-0.195,0.193-0.512,0-0.707c-0.195-0.195-0.514-0.195-0.707,0L10,9.792L4.354,4.147
	c-0.195-0.195-0.512-0.195-0.707,0s-0.195,0.512,0,0.707L9.293,10.5l-5.646,5.646c-0.195,0.193-0.195,0.512,0,0.707
	C3.745,16.951,3.873,17,4.001,17s0.256-0.049,0.354-0.146l5.646-5.646l5.646,5.646c0.1,0.098,0.228,0.146,0.354,0.146
	s0.256-0.049,0.354-0.146c0.193-0.195,0.193-0.514,0-0.707L10.709,10.5H10.707z"/>
</svg>
