<svg width="24" height="31" viewBox="0 0 24 31" fill="none" xmlns="http://www.w3.org/2000/svg">
<path fill-rule="evenodd" clip-rule="evenodd" d="M0 3.10889C0 2.83274 0.223858 2.60889 0.5 2.60889H5.71739C5.99353 2.60889 6.21739 2.83274 6.21739 3.10889C6.21739 3.38503 5.99353 3.60889 5.71739 3.60889H1V30.0002H22.1739V3.60889H17.4565C17.1804 3.60889 16.9565 3.38503 16.9565 3.10889C16.9565 2.83274 17.1804 2.60889 17.4565 2.60889H22.6739C22.9501 2.60889 23.1739 2.83274 23.1739 3.10889V30.5002C23.1739 30.7763 22.9501 31.0002 22.6739 31.0002H0.5C0.223858 31.0002 0 30.7763 0 30.5002V3.10889Z" fill="black"/>
<path fill-rule="evenodd" clip-rule="evenodd" d="M8.32598 1C7.16082 1 6.21729 1.94353 6.21729 3.1087V5.21739H16.9564V3.1087C16.9564 1.94353 16.0129 1 14.8477 1H8.32598ZM5.21729 3.1087C5.21729 1.39125 6.60853 0 8.32598 0H14.8477C16.5652 0 17.9564 1.39125 17.9564 3.1087V5.71739C17.9564 5.99353 17.7326 6.21739 17.4564 6.21739H5.71729C5.44114 6.21739 5.21729 5.99353 5.21729 5.71739V3.1087Z" fill="black"/>
<path fill-rule="evenodd" clip-rule="evenodd" d="M5.21729 12.2393C5.21729 11.9631 5.44114 11.7393 5.71729 11.7393H17.4564C17.7326 11.7393 17.9564 11.9631 17.9564 12.2393C17.9564 12.5154 17.7326 12.7393 17.4564 12.7393H5.71729C5.44114 12.7393 5.21729 12.5154 5.21729 12.2393Z" fill="black"/>
<path fill-rule="evenodd" clip-rule="evenodd" d="M5.21729 18.7607C5.21729 18.4846 5.44114 18.2607 5.71729 18.2607H17.4564C17.7326 18.2607 17.9564 18.4846 17.9564 18.7607C17.9564 19.0369 17.7326 19.2607 17.4564 19.2607H5.71729C5.44114 19.2607 5.21729 19.0369 5.21729 18.7607Z" fill="black"/>
</svg>
