<svg version="1.1" id="Layer_1" xmlns="http://www.w3.org/2000/svg" xmlns:xlink="http://www.w3.org/1999/xlink" x="0px" y="0px"
	 width="34px" height="32px" viewBox="0 0 34 32" enable-background="new 0 0 34 32" xml:space="preserve">
<path d="M26.6,32H3.4C1.875,32,0,30.181,0,28.7V5.4C0,3.843,1.843,2,3.4,2H25c0.553,0,1,0.448,1,1s-0.447,1-1,1
	H3.4C2.955,4,2,4.955,2,5.4v23.3C2.035,29.084,2.945,30,3.4,30h23.2c0.402-0.031,1.349-0.915,1.401-1.313L28,11
	c0-0.552,0.447-1,1-1s1,0.448,1,1v17.7C30,30.119,28.062,32,26.6,32z"/>
<path d="M31.2,5.3L15.4,21.2c-0.4,0.399-1,0.399-1.4,0l-1-1c-0.4-0.4-0.4-1,0-1.4L28.8,3"/>
<path d="M28.8,3l-2.2-2.3C26.2,0.3,26.3,0,26.9,0H32.8C33.4,0,34,0.4,34,0.9v6.4c0,0.5-0.4,0.7-0.8,0.3L31,5.5"/>
</svg>
