<svg version="1.1" xmlns="http://www.w3.org/2000/svg" xmlns:xlink="http://www.w3.org/1999/xlink" x="0px" y="0px"
	 width="20px" height="20px" viewBox="0 0 20 20" enable-background="new 0 0 20 20" xml:space="preserve">
<path d="M6.376,13c-0.155-0.309-0.325-0.621-0.512-0.936c-0.181-0.32-0.392-0.646-0.632-0.977
	c-0.075,0.096-0.171,0.229-0.288,0.4C4.832,11.659,4.718,11.84,4.6,12.032c-0.112,0.192-0.219,0.376-0.32,0.552
	C4.179,12.76,4.104,12.898,4.056,13H2.632c0.235-0.432,0.507-0.885,0.816-1.359c0.315-0.476,0.664-0.979,1.048-1.513L2.712,7.456
	h1.512l1.08,1.728L6.36,7.456h1.424l-1.76,2.688c0.448,0.581,0.824,1.12,1.128,1.616c0.304,0.491,0.544,0.904,0.72,1.24H6.376z
	 M12.495,11.928V13H8.791V7.456h1.248v4.472H12.495z M14.943,12.048c0.176,0,0.32-0.013,0.432-0.04
	c0.117-0.031,0.211-0.072,0.279-0.119c0.07-0.054,0.117-0.115,0.145-0.185s0.04-0.147,0.04-0.231c0-0.182-0.085-0.332-0.256-0.449
	c-0.171-0.123-0.464-0.252-0.88-0.392c-0.182-0.063-0.363-0.136-0.544-0.216c-0.181-0.085-0.345-0.189-0.488-0.312
	c-0.144-0.128-0.261-0.28-0.353-0.456c-0.09-0.181-0.135-0.4-0.135-0.656c0-0.256,0.047-0.485,0.144-0.688
	c0.096-0.208,0.231-0.384,0.407-0.528c0.177-0.144,0.39-0.253,0.641-0.328c0.251-0.08,0.533-0.12,0.848-0.12
	c0.373,0,0.696,0.04,0.969,0.12c0.271,0.08,0.496,0.168,0.672,0.264l-0.36,0.984c-0.155-0.08-0.328-0.149-0.521-0.208
	c-0.187-0.064-0.412-0.096-0.68-0.096c-0.299,0-0.515,0.043-0.648,0.128c-0.127,0.08-0.191,0.205-0.191,0.376
	c0,0.101,0.023,0.187,0.072,0.256c0.048,0.069,0.115,0.133,0.199,0.192c0.092,0.053,0.193,0.104,0.305,0.152
	c0.117,0.043,0.245,0.088,0.384,0.136c0.288,0.107,0.539,0.213,0.752,0.32c0.214,0.101,0.39,0.221,0.528,0.36
	c0.145,0.139,0.251,0.301,0.32,0.488c0.068,0.187,0.104,0.413,0.104,0.681c0,0.517-0.182,0.92-0.544,1.207
	c-0.362,0.283-0.909,0.424-1.64,0.424c-0.246,0-0.467-0.016-0.664-0.047c-0.197-0.027-0.373-0.062-0.528-0.104
	c-0.149-0.043-0.28-0.088-0.392-0.136c-0.107-0.049-0.197-0.094-0.272-0.137l0.353-0.992c0.164,0.092,0.367,0.174,0.607,0.248
	C14.293,12.014,14.591,12.048,14.943,12.048z"/>
<path d="M20,20H0V0h20V20z M1,19h18V1H1V19z"/>
</svg>
