<svg version="1.1" id="Layer_1" xmlns="http://www.w3.org/2000/svg" xmlns:xlink="http://www.w3.org/1999/xlink" x="0px" y="0px"
	 width="28px" height="32px" viewBox="2 0 28 32" enable-background="new 2 0 28 32" xml:space="preserve">
<path d="M26.313,18.421c-0.426-0.42-1.371-0.644-2.812-0.662c-0.974-0.011-2.147,0.075-3.38,0.248
	c-0.553-0.319-1.122-0.665-1.568-1.083c-1.201-1.122-2.205-2.68-2.831-4.394c0.041-0.16,0.075-0.301,0.108-0.444
	c0,0,0.677-3.846,0.498-5.146c-0.025-0.178-0.04-0.23-0.088-0.369L16.181,6.42c-0.184-0.425-0.545-0.875-1.111-0.85l-0.341-0.011
	c-0.631,0-1.146,0.323-1.281,0.805c-0.411,1.514,0.013,3.778,0.781,6.711l-0.197,0.478c-0.55,1.34-1.238,2.689-1.846,3.88
	l-0.079,0.154c-0.639,1.251-1.22,2.313-1.745,3.213l-0.543,0.287c-0.04,0.021-0.97,0.514-1.188,0.645
	c-1.852,1.106-3.079,2.361-3.282,3.357c-0.065,0.318-0.017,0.725,0.313,0.913l0.525,0.265c0.228,0.113,0.468,0.172,0.714,0.172
	c1.319,0,2.85-1.644,4.959-5.324c2.435-0.793,5.208-1.452,7.638-1.815c1.852,1.044,4.129,1.767,5.566,1.767
	c0.256,0,0.476-0.023,0.654-0.071c0.276-0.073,0.508-0.229,0.65-0.444c0.279-0.42,0.335-0.998,0.26-1.59
	c-0.023-0.176-0.163-0.393-0.314-0.541L26.313,18.421z M6.614,25.439c0.241-0.658,1.192-1.959,2.6-3.111
	c0.088-0.072,0.306-0.275,0.506-0.467C8.248,24.21,7.262,25.145,6.614,25.439z M14.951,6.24c0.424,0,0.665,1.069,0.685,2.07
	c0.02,1.001-0.214,1.705-0.505,2.225c-0.241-0.77-0.357-1.984-0.357-2.778C14.774,7.757,14.756,6.24,14.951,6.24L14.951,6.24z
	 M12.464,19.922c0.295-0.529,0.603-1.086,0.917-1.677c0.765-1.447,1.249-2.58,1.609-3.511c0.716,1.303,1.607,2.411,2.656,3.297
	c0.131,0.111,0.269,0.222,0.414,0.332C15.929,18.786,14.087,19.299,12.464,19.922L12.464,19.922L12.464,19.922z M25.902,19.803
	c-0.129,0.08-0.502,0.127-0.74,0.127c-0.771,0-1.727-0.353-3.066-0.927c0.516-0.038,0.986-0.058,1.409-0.058
	c0.774,0,1.004-0.002,1.761,0.191C26.023,19.329,26.033,19.721,25.902,19.803L25.902,19.803L25.902,19.803z"/>
<path d="M28.682,7.159c-0.695-0.947-1.662-2.053-2.725-3.116s-2.169-2.03-3.116-2.724C21.229,0.137,20.448,0,20,0H4.5
	C3.122,0,2,1.121,2,2.5v27C2,30.878,3.121,32,4.5,32h23c1.378,0,2.5-1.122,2.5-2.5V10C30,9.552,29.863,8.77,28.682,7.159
	L28.682,7.159z M24.543,5.457C25.502,6.416,26.255,7.282,26.811,8H22V3.189C22.718,3.745,23.584,4.498,24.543,5.457L24.543,5.457z
	 M28,29.5c0,0.271-0.229,0.5-0.5,0.5h-23C4.229,30,4,29.771,4,29.5v-27C4,2.229,4.229,2,4.5,2c0,0,15.499,0,15.5,0v7
	c0,0.552,0.448,1,1,1h7V29.5z"/>
</svg>
