<svg version="1.1" id="Layer_1" xmlns="http://www.w3.org/2000/svg" xmlns:xlink="http://www.w3.org/1999/xlink" x="0px" y="0px"
	 width="28px" height="32px" viewBox="2 0 28 32" enable-background="new 2 0 28 32" xml:space="preserve">
<path d="M28.682,7.159c-0.695-0.947-1.662-2.053-2.725-3.116s-2.169-2.03-3.116-2.724C21.229,0.137,20.448,0,20,0H4.5
	C3.122,0,2,1.121,2,2.5v27C2,30.878,3.122,32,4.5,32h23c1.378,0,2.5-1.122,2.5-2.5V10C30,9.552,29.863,8.77,28.682,7.159z
	 M24.543,5.457C25.502,6.416,26.255,7.282,26.811,8H22V3.189C22.718,3.745,23.584,4.498,24.543,5.457z M28,29.5
	c0,0.271-0.229,0.5-0.5,0.5h-23C4.229,30,4,29.771,4,29.5v-27C4,2.229,4.229,2,4.5,2c0,0,15.499,0,15.5,0v7c0,0.552,0.448,1,1,1h7
	V29.5z"/>
<path d="M23,26H9c-0.552,0-1-0.447-1-1s0.448-1,1-1h14c0.552,0,1,0.447,1,1S23.552,26,23,26z"/>
<path d="M23,22H9c-0.552,0-1-0.447-1-1s0.448-1,1-1h14c0.552,0,1,0.447,1,1S23.552,22,23,22z"/>
<path d="M23,18H9c-0.552,0-1-0.447-1-1c0-0.552,0.448-1,1-1h14c0.552,0,1,0.448,1,1C24,17.553,23.552,18,23,18z"/>
</svg>
