<svg version="1.1" id="Layer_1" xmlns="http://www.w3.org/2000/svg" xmlns:xlink="http://www.w3.org/1999/xlink" x="0px" y="0px"
	 width="23.001px" height="28px" viewBox="4 2 23.001 28" enable-background="new 4 2 23.001 28" xml:space="preserve">
<path d="M26.611,2.815C26.234,2.302,25.637,2,25,2H6C4.895,2,4,2.895,4,4v24c0,0.809,0.487,1.538,1.235,1.848
	C5.482,29.95,5.742,30,6,30c0.521,0,1.032-0.203,1.415-0.586L14.829,22h5.172c0.875,0,1.647-0.568,1.909-1.402l5-16
	C27.1,3.99,26.988,3.328,26.611,2.815L26.611,2.815z M21.029,10H14c-1.105,0-2,0.895-2,2s0.895,2,2,2h5.779l-1.25,4H14
	c-0.53,0-1.039,0.211-1.414,0.586L8,23.172V6h14.279L21.029,10z"/>
</svg>
