<svg version="1.1" id="Layer_1" xmlns="http://www.w3.org/2000/svg" xmlns:xlink="http://www.w3.org/1999/xlink" x="0px" y="0px"
	 width="16px" height="15.712px" viewBox="0 0 16 15.712" enable-background="new 0 0 16 15.712" xml:space="preserve">
<path d="M0.85,3.917c0,1.334,0.444,2.296,1.323,2.861C2.891,7.244,3.727,7.312,4.16,7.312
	c0.104,0,0.188-0.004,0.248-0.008c0,0-0.138,0.896,0.526,1.782L4.905,9.085C3.754,9.086,0,9.327,0,12.412
	c0,3.141,3.447,3.3,4.14,3.3c0.054,0,0.085-0.001,0.085-0.001c0.008,0,0.058,0.002,0.142,0.002c0.443,0,1.591-0.055,2.656-0.574
	c1.382-0.67,2.084-1.838,2.084-3.468c0-1.575-1.068-2.514-1.849-3.198C6.782,8.054,6.37,7.693,6.37,7.342
	c0-0.356,0.301-0.626,0.682-0.966c0.614-0.551,1.194-1.333,1.194-2.813c0-1.302-0.169-2.174-1.209-2.729
	c0.109-0.056,0.492-0.096,0.682-0.122c0.563-0.076,1.388-0.164,1.388-0.624V0H5.001C4.959,0.001,0.85,0.153,0.85,3.917L0.85,3.917z
	 M7.476,11.964c0.079,1.256-0.995,2.182-2.607,2.3c-1.638,0.119-2.986-0.618-3.065-1.872c-0.038-0.603,0.227-1.193,0.746-1.664
	c0.526-0.477,1.248-0.77,2.034-0.828c0.093-0.006,0.185-0.01,0.276-0.01C6.375,9.89,7.402,10.783,7.476,11.964L7.476,11.964z
	 M6.404,3.058c0.403,1.417-0.206,2.898-1.175,3.171c-0.11,0.032-0.227,0.048-0.343,0.048c-0.889,0-1.768-0.898-2.094-2.136
	C2.611,3.447,2.625,2.839,2.834,2.254C3.04,1.68,3.408,1.292,3.873,1.161C3.984,1.13,4.1,1.113,4.217,1.113
	C5.289,1.113,5.978,1.558,6.404,3.058L6.404,3.058z M13.322,6.144V3.465h-1.697v2.679H8.947V7.84h2.678v2.679h1.697V7.84H16V6.144
	H13.322z M13.322,6.144"/>
</svg>
