<svg version="1.1" id="Layer_1" xmlns="http://www.w3.org/2000/svg" xmlns:xlink="http://www.w3.org/1999/xlink" x="0px" y="0px"
	 width="17.698px" height="16px" viewBox="0 0 17.698 16" style="enable-background:new 0 0 17.698 16;" xml:space="preserve">
<path d="M10.27,15.564c0,0.195,0.158,0.355,0.354,0.355h5.368c0.197,0,0.356-0.16,0.356-0.355V8.539
	c0-0.197-0.159-0.356-0.356-0.356c-0.195,0-0.355,0.16-0.355,0.356v6.668h-4.656v-3.714c0-0.198-0.16-0.356-0.356-0.356H7.132
	c-0.196,0-0.356,0.158-0.356,0.356v3.794H2.06V8.059c0-0.196-0.159-0.355-0.355-0.355c-0.196,0-0.356,0.16-0.356,0.355v7.585
	C1.348,15.84,1.509,16,1.705,16h5.428c0.197,0,0.356-0.16,0.356-0.356v-3.796h2.781V15.564z M17.566,6.985L9.042,0.08
	C8.913-0.026,8.728-0.026,8.598,0.076L0.135,6.743c-0.154,0.122-0.181,0.344-0.059,0.499s0.346,0.181,0.499,0.059l8.24-6.49
	l8.303,6.726c0.066,0.054,0.146,0.08,0.225,0.08c0.104,0,0.206-0.045,0.275-0.132C17.742,7.333,17.719,7.108,17.566,6.985
	L17.566,6.985z"/>
</svg>
