<?xml version="1.0" encoding="utf-8"?>
<!-- Generator: Adobe Illustrator 26.1.0, SVG Export Plug-In . SVG Version: 6.00 Build 0)  -->
<svg version="1.1" id="Слой_1" xmlns="http://www.w3.org/2000/svg" xmlns:xlink="http://www.w3.org/1999/xlink" x="0px" y="0px"
	 viewBox="0 0 24 24" style="enable-background:new 0 0 24 24;" xml:space="preserve">
<style type="text/css">
	.st0{fill:#26B3E8;}
</style>
<path class="st0" d="M12,0C5.4,0,0,5.4,0,12s5.4,12,12,12s12-5.4,12-12S18.6,0,12,0z M18.7,13.4l-6,6.3c-0.1,0.1-0.2,0.2-0.3,0.2
	C12.3,20,12.1,20,12,20s-0.3,0-0.4-0.1c-0.1-0.1-0.2-0.1-0.3-0.2l-6-6.3C5.1,13.2,5,12.9,5,12.6c0-0.3,0.1-0.5,0.3-0.7
	c0.2-0.2,0.4-0.3,0.7-0.3c0.3,0,0.5,0.1,0.7,0.3l4.3,4.5V4.1c0-0.3,0.1-0.5,0.3-0.7C11.5,3.1,11.7,3,12,3c0.3,0,0.5,0.1,0.7,0.3
	C12.9,3.5,13,3.8,13,4.1v12.3l4.3-4.5c0.2-0.2,0.4-0.3,0.7-0.3c0.3,0,0.5,0.1,0.7,0.3c0.2,0.2,0.3,0.5,0.3,0.7
	C19,12.9,18.9,13.2,18.7,13.4z"/>
</svg>
