<?xml version="1.0" encoding="utf-8"?>
<!-- Generator: Adobe Illustrator 26.1.0, SVG Export Plug-In . SVG Version: 6.00 Build 0)  -->
<svg version="1.1" id="Слой_1" xmlns="http://www.w3.org/2000/svg" xmlns:xlink="http://www.w3.org/1999/xlink" x="0px" y="0px"
	 viewBox="0 0 26 26" style="enable-background:new 0 0 26 26;" xml:space="preserve">
<path d="M25,7.8H1C0.6,7.8,0.2,7.4,0.2,7S0.6,6.2,1,6.2h24c0.4,0,0.8,0.3,0.8,0.8S25.4,7.8,25,7.8z M25.8,13c0-0.4-0.3-0.8-0.8-0.8
	H1c-0.4,0-0.8,0.3-0.8,0.8s0.3,0.8,0.8,0.8h24C25.4,13.8,25.8,13.4,25.8,13z M25.8,19c0-0.4-0.3-0.8-0.8-0.8H1
	c-0.4,0-0.8,0.3-0.8,0.8s0.3,0.8,0.8,0.8h24C25.4,19.8,25.8,19.4,25.8,19z"/>
</svg>
