<?xml version="1.0" encoding="utf-8"?>
<!-- Generator: Adobe Illustrator 26.1.0, SVG Export Plug-In . SVG Version: 6.00 Build 0)  -->
<svg version="1.1" id="Слой_1" xmlns="http://www.w3.org/2000/svg" xmlns:xlink="http://www.w3.org/1999/xlink" x="0px" y="0px"
	 viewBox="0 0 24 24" style="enable-background:new 0 0 24 24;" xml:space="preserve">
<style type="text/css">
	.st0{fill:#2C3238;}
</style>
<path class="st0" d="M21.5,20.5l-4.7-4.7c1.2-1.4,1.9-3.3,1.9-5.3c0-4.5-3.7-8.2-8.2-8.2S2.2,6,2.2,10.5s3.7,8.2,8.2,8.2
	c2,0,3.8-0.7,5.3-1.9l4.7,4.7c0.1,0.1,0.3,0.2,0.5,0.2s0.4-0.1,0.5-0.2C21.8,21.2,21.8,20.8,21.5,20.5z M3.8,10.5
	c0-3.7,3-6.8,6.8-6.8c3.7,0,6.8,3,6.8,6.8c0,3.7-3,6.8-6.8,6.8C6.8,17.2,3.8,14.2,3.8,10.5z"/>
</svg>
