<svg width="18" height="14" viewBox="0 0 18 14" fill="none" xmlns="http://www.w3.org/2000/svg">
<path fill-rule="evenodd" clip-rule="evenodd" d="M1.23687 6.02713C6.06875 4.05121 9.29089 2.74885 10.903 2.11946C15.5061 0.322734 16.4625 0.0103692 17.0857 0.000102223C17.2229 -0.00207562 17.5292 0.0296586 17.7281 0.180863C17.8959 0.308423 17.9419 0.481095 17.9641 0.602121C17.9864 0.723147 18.0139 0.999111 17.992 1.21441C17.7427 3.67413 16.6634 9.64329 16.1141 12.3983C15.8817 13.564 15.4242 13.9548 14.9813 13.9931C14.0187 14.0761 13.2881 13.396 12.3556 12.8226C10.8967 11.9251 10.0726 11.3666 8.65674 10.4908C7.02015 9.47871 8.08126 8.92243 9.01376 8.01333C9.25774 7.77532 13.4989 4.15512 13.5808 3.82658C13.5911 3.78551 13.6007 3.63244 13.5035 3.55155C13.4064 3.47065 13.2635 3.49834 13.1604 3.52043C13.0143 3.55155 10.6838 4.99732 6.1692 7.85746C5.50786 8.28369 4.90852 8.49152 4.37183 8.48063C3.78011 8.4685 2.64175 8.16671 1.79544 7.90848C0.75753 7.59176 -0.067563 7.42438 0.00437159 6.88645C0.0418306 6.60644 0.452886 6.3199 1.23754 6.02713H1.23687Z" fill="#26B3E8"/>
</svg>
