<svg width="32" height="32" viewBox="0 0 32 32" fill="none" xmlns="http://www.w3.org/2000/svg">
<g>
<path d="M19.0969 17.7C19.4145 18.0555 19.7076 18.387 20.0007 18.7186C20.1609 18.9016 20.321 19.0846 20.4784 19.2703C20.5083 19.3021 20.5001 19.3658 20.511 19.4162C20.4513 19.4162 20.3888 19.4321 20.3373 19.4162C20.283 19.3923 20.2396 19.3366 20.1988 19.2968C19.7972 18.9016 19.3928 18.5037 18.9911 18.1059C18.9368 18.0528 18.8825 18.0051 18.8255 17.9573C18.5731 18.2597 18.3315 18.5488 18.0656 18.8645C18.1578 18.8698 18.2311 18.8724 18.3017 18.8777C18.8092 18.899 19.1621 19.3128 19.0752 19.8061C19.0589 19.8937 18.9856 19.9679 18.9395 20.0422C18.9449 19.8592 18.9775 19.6947 18.9476 19.5409C18.9069 19.326 18.7414 19.1881 18.5432 19.0899C18.223 18.9334 17.8756 18.9706 17.7453 19.2014C17.8457 19.2252 17.9434 19.2518 18.0357 19.2756C17.7697 19.326 17.8294 19.4746 17.8701 19.6576C17.9298 19.9096 17.9624 20.1748 17.9706 20.4321C17.9787 20.7716 17.8186 20.9679 17.4766 21.0289C17.2567 21.0714 17.0288 21.0634 16.8062 21.0714C16.6678 21.0767 16.5267 21.0714 16.3638 21.0714C16.4914 21.8963 16.4099 22.6682 15.9404 23.3552C15.8128 23.5409 15.6147 23.6841 15.422 23.8114C15.5821 23.5754 15.7504 23.3419 15.8997 23.0979C16.1223 22.7239 16.2118 22.3181 16.201 21.8884C16.1955 21.6735 16.1955 21.4613 16.1955 21.2464C16.1955 21.0846 16.1331 20.9732 15.9594 20.9281C15.8128 20.8857 15.6717 20.8088 15.5197 20.7796C15.3894 20.7557 15.2402 20.7425 15.1153 20.7796C14.6756 20.9096 14.3174 20.822 14.0188 20.4852C13.9808 20.4427 13.9482 20.4029 13.8912 20.3446C13.837 20.4029 13.7935 20.4533 13.7474 20.5011C13.1639 21.0953 12.8897 21.8061 12.8137 22.6284C12.7595 23.2093 12.602 23.7796 12.4555 24.3499C12.4039 24.5488 12.2574 24.7239 12.1298 24.8963C12.0402 25.021 11.9018 25.0289 11.7498 24.9494C12.1298 24.9255 12.2058 24.6258 12.2682 24.3738C12.4338 23.7186 12.5559 23.0555 12.6862 22.3923C12.716 22.2385 12.7188 22.0846 12.7378 21.9281C12.7215 21.9149 12.6998 21.9069 12.6835 21.8937C12.5993 21.9679 12.5071 22.0342 12.4311 22.1165C12.0348 22.5568 11.6494 23.0051 11.245 23.4348C11.0794 23.6098 10.8786 23.7531 10.6886 23.9069C10.637 23.9494 10.5746 23.9679 10.5149 23.9971C10.5013 23.9838 10.4932 23.9732 10.4823 23.9547C10.5583 23.8592 10.6207 23.7584 10.7049 23.6762C10.9546 23.4242 11.2043 23.1669 11.473 22.9334C12.2411 22.2703 12.7513 21.4693 12.8762 20.4586C12.8789 20.4348 12.8789 20.4056 12.8382 20.3499C12.5505 20.6576 12.2736 20.9706 11.9805 21.2756C11.359 21.9308 10.732 22.578 10.0806 23.2067C9.92864 23.3552 9.70609 23.448 9.4971 23.525C9.32068 23.5913 9.17141 23.4666 9.2474 23.3021C9.41296 22.9467 9.61381 22.6098 9.80922 22.2703C9.82279 22.2491 9.89879 22.2279 9.91507 22.2464C9.94493 22.2756 9.96935 22.3287 9.96121 22.3632C9.92321 22.4666 9.87165 22.5674 9.82279 22.6655C9.73865 22.83 9.64909 22.9971 9.58938 23.1828C10.7809 22.3817 11.6847 21.3075 12.6129 20.2438C12.3008 20.0581 12.2112 20.0899 12.1108 20.3764C11.9832 20.7425 11.7932 21.0687 11.5245 21.3472C11.473 21.4003 11.4024 21.4374 11.3183 21.464C11.3563 21.0953 11.7037 20.8884 11.8122 20.5144C11.587 20.7106 11.397 20.8831 11.1988 21.0449C11.0957 21.1271 10.9817 21.1934 10.8569 21.2438C10.8053 21.265 10.6913 21.2491 10.675 21.2146C10.6506 21.1563 10.6533 21.0661 10.6832 21.0024C10.6995 20.96 10.7754 20.9388 10.827 20.9202C10.9112 20.891 11.0251 20.8963 11.0849 20.8406C11.3807 20.5807 11.663 20.3021 11.9751 20.0077C11.8665 19.9414 11.7715 19.8698 11.6684 19.83C11.625 19.8141 11.5327 19.83 11.5083 19.8671C11.321 20.1085 11.0767 20.1085 10.8243 20.0422C10.6723 19.9998 10.5746 20.0369 10.4823 20.1616C10.0589 20.7212 9.37225 20.7743 8.82671 20.1669C8.48473 19.7823 8.30017 19.3287 8.31646 18.7982C8.33003 18.4242 8.46031 18.1218 8.76429 17.9069C8.89457 17.8114 8.93256 17.7027 8.84028 17.5913C8.62587 17.3207 8.4006 17.0555 8.15633 16.8167C7.83878 16.5011 7.54837 16.1828 7.55651 15.7C7.56194 15.4427 7.64607 15.2067 7.86592 15.0979C8.60958 14.7451 8.67744 14.0793 8.73443 13.4029C8.75615 13.1457 8.73715 12.8857 8.73715 12.5913C8.31375 12.7743 7.9012 12.952 7.71121 13.4109C7.6515 13.5515 7.66507 13.639 7.85777 13.6602C8.13733 13.6894 8.32189 13.8831 8.37617 14.1589C8.41417 14.3579 8.29475 14.4852 8.10204 14.4189C7.77364 14.3022 7.45066 14.1616 7.13039 14.021C7.06797 13.9918 6.99197 13.891 7.00011 13.838C7.00826 13.7796 7.10054 13.6974 7.16839 13.6815C7.39637 13.639 7.48594 13.5037 7.54294 13.2968C7.6325 12.9892 7.87949 12.7796 8.16447 12.6868C8.74258 12.5011 9.0167 12.082 9.1904 11.5541C9.23654 11.4189 9.3044 11.2889 9.37768 11.1244C9.14969 10.9838 8.90814 10.8353 8.66929 10.6894C8.5933 10.6443 8.50373 10.6019 8.43859 10.5435C8.39245 10.5011 8.37074 10.4348 8.33817 10.3817C8.4006 10.3738 8.47388 10.3446 8.52545 10.3658C8.88371 10.4878 9.23926 10.6205 9.58938 10.7637C9.94493 10.9122 9.9775 10.9202 10.2571 10.6549C10.333 10.5833 10.4036 10.5064 10.485 10.4401C10.5637 10.3738 10.6506 10.3154 10.7809 10.2199C10.2055 9.86449 9.65723 9.53557 9.10898 9.20401C9.11712 9.17483 9.13069 9.14565 9.13884 9.11647C9.29625 9.14565 9.45639 9.16687 9.61109 9.20666C10.1431 9.36051 10.6207 9.62045 11.0631 9.94406C11.1636 10.0183 11.245 10.0449 11.3346 9.89366L10.3982 9.13504C10.2788 9.03955 10.1539 8.94937 10.0426 8.84592C10.0019 8.80878 9.99107 8.73451 9.96664 8.67616C10.0264 8.67085 10.0969 8.64167 10.1403 8.66289C10.6262 8.91488 11.1826 9.06077 11.5517 9.50374C11.6602 9.63637 11.7661 9.64433 11.9154 9.55679C12.1949 9.39499 12.4799 9.2491 12.7649 9.09525C13.3729 8.76369 14.0351 8.64433 14.7163 8.63106C15.2999 8.6178 15.8807 8.6682 16.4642 8.68146C16.5321 8.68146 16.6298 8.64963 16.6569 8.60189C16.8035 8.34459 16.9691 8.0873 17.0613 7.80878C17.2079 7.37907 16.8849 7.03425 16.4452 7.16953C16.068 7.28624 15.7151 7.47987 15.3569 7.65494C15.2022 7.72921 15.0665 7.84061 14.9226 7.9361L14.8765 7.89101C14.9606 7.80348 15.0366 7.70003 15.137 7.63372C15.4112 7.45334 15.6907 7.28358 15.9784 7.12443C16.2824 6.95998 16.6189 6.98385 16.9501 7.00772C17.1346 7.02098 17.292 7.22788 17.3137 7.43478C17.3463 7.76634 17.1862 8.0369 17.0233 8.30215C16.7709 8.70799 16.7655 8.70533 17.1889 8.90693C17.2432 8.9361 17.3083 8.95732 17.3572 8.99446C17.5336 9.13239 17.6829 9.12443 17.8213 8.9361C17.8511 8.89366 17.9271 8.8751 17.9814 8.87775C18.0058 8.87775 18.033 8.95202 18.0438 8.96528C17.938 9.02364 17.8213 9.04751 17.7941 9.11117C17.7724 9.16157 17.8484 9.25971 17.8946 9.33133C17.9326 9.38968 17.9868 9.43478 18.052 9.5064C18.2583 9.12178 18.4401 8.74247 18.4401 8.31276C18.4401 8.25441 18.3641 8.18809 18.3098 8.14831C18.2583 8.10586 18.1877 8.09525 18.1117 8.06077C18.3451 7.94937 18.5622 8.07669 18.584 8.31276C18.6138 8.6735 18.5242 9.01303 18.3695 9.33398C18.3017 9.47457 18.2311 9.6125 18.1633 9.74777C18.185 9.76369 18.2067 9.7796 18.2257 9.79287C18.3912 9.63902 18.5677 9.49844 18.7142 9.32868C18.9368 9.07138 19.1403 8.79817 19.3385 8.52496C19.3765 8.47457 19.3602 8.38968 19.3683 8.31807C19.3466 8.31011 19.3249 8.3048 19.3059 8.29685C19.3466 8.25971 19.3846 8.21462 19.4335 8.1934C19.4796 8.17218 19.5556 8.16422 19.5855 8.18809C19.6153 8.20931 19.6316 8.29685 19.6099 8.33398C19.4905 8.53027 19.3765 8.72921 19.2326 8.90162C19.1322 9.02894 18.9884 9.12443 18.8608 9.23849C18.8771 9.25971 18.8934 9.27563 18.9069 9.29685L19.5773 8.84857C20.1798 8.44273 20.7797 8.0369 21.3876 7.63372C21.4718 7.58067 21.5858 7.57271 21.6835 7.54353C21.697 7.5674 21.7079 7.59658 21.7215 7.62311C21.6672 7.6735 21.621 7.7239 21.5613 7.76899C20.5327 8.54088 19.5013 9.30746 18.47 10.0793C18.394 10.1377 18.2963 10.204 18.2718 10.2809C18.242 10.3764 18.2501 10.5037 18.2935 10.5913C18.3397 10.6868 18.6817 10.7027 18.8092 10.6337C19.1892 10.4268 19.5692 10.212 19.9492 10.0024C20.017 9.96528 20.093 9.94937 20.1636 9.92019C20.1771 9.94406 20.1934 9.97059 20.207 9.99446C19.8053 10.2597 19.4009 10.5223 18.9992 10.7876C19.1675 11.021 19.4688 11.0953 19.6995 10.9626C19.9329 10.8327 20.1609 10.6974 20.3916 10.5648C20.454 10.5276 20.5218 10.4931 20.587 10.4613C20.6005 10.4772 20.6114 10.4984 20.6277 10.5144C20.511 10.6098 20.3943 10.708 20.2776 10.8035L20.2911 10.8406L20.9452 10.6576C21.0212 10.7106 21.0972 10.7478 21.1569 10.8114C21.2166 10.8724 21.2492 10.952 21.2954 11.0236C21.2166 11.0555 21.1352 11.0899 21.0592 11.1244C21.0511 11.1032 21.0375 11.0873 21.0294 11.0661C21.0728 11.0422 21.1108 11.013 21.1515 10.9865C20.9534 10.7451 20.1771 10.8831 19.846 11.2093C20.0577 11.4215 20.1744 11.4215 20.3807 11.2173C20.4947 11.1085 20.6033 11.0024 20.72 10.8937C20.7362 10.9096 20.7525 10.9281 20.7715 10.9388C20.5897 11.1085 20.4078 11.2783 20.264 11.4162C20.5978 11.7557 20.9018 12.0661 21.2085 12.3685C21.2546 12.4136 21.3442 12.4321 21.4121 12.4321C21.6156 12.4401 21.8137 12.4454 22.0146 12.4321C22.153 12.4242 22.3104 12.4083 22.4298 12.3499C22.6633 12.2332 22.78 12.2411 22.9564 12.4905L22.8044 12.4268C22.59 12.3234 22.4868 12.3446 22.419 12.5727C22.3376 12.8433 22.2969 13.1244 22.2534 13.4029C22.1069 14.4507 21.5071 15.1483 20.5218 15.5462C20.2694 15.6496 20.1039 15.9679 20.2477 16.1934C20.2993 16.273 20.4621 16.3234 20.5734 16.3234C20.9968 16.3154 21.4175 16.3022 21.8355 16.2571C22.3837 16.196 22.9265 16.1032 23.4612 15.9785C23.4286 15.9706 23.3906 15.9732 23.3635 15.9547C23.3309 15.9308 23.3119 15.8884 23.2875 15.8539C23.3255 15.83 23.3581 15.7823 23.3961 15.7823C23.4856 15.777 23.5861 15.777 23.6675 15.8114C23.7381 15.8406 23.7842 15.9149 23.8439 15.9679C23.7978 16.013 23.7598 16.0767 23.7055 16.1085C23.3119 16.3313 22.875 16.4109 22.4353 16.448C21.7567 16.5064 21.0755 16.5435 20.397 16.578C20.0224 16.5939 19.9654 16.6231 19.8406 17.0263C21.5586 17.3234 23.2685 17.3048 24.9838 16.9892C24.992 17.013 25.0001 17.0422 25.0055 17.0687C24.84 17.143 24.6798 17.2385 24.5116 17.2915C23.8276 17.5117 23.1192 17.6284 22.4 17.6523C22.248 17.6549 22.134 17.6602 22.1042 17.8592C22.096 17.9255 21.9223 18.0289 21.8382 18.021C21.4365 17.9732 21.0348 17.9069 20.6385 17.8167C20.397 17.7663 20.169 17.6629 19.9329 17.6019C19.8623 17.5807 19.7564 17.4693 19.6913 17.6231C19.6913 17.6284 19.637 17.6205 19.6153 17.6019C19.4389 17.4613 19.295 17.5886 19.0996 17.6974L19.0969 17.7ZM15.8617 19.9838C15.9893 20.2252 16.106 20.464 16.2417 20.7C16.2661 20.7451 16.3394 20.7876 16.3937 20.7955C16.6651 20.8406 16.9338 20.8937 17.2052 20.9043C17.6177 20.9202 17.9136 20.5939 17.8376 20.1907C17.7914 19.9388 17.6693 19.6974 17.577 19.456C17.5309 19.3393 17.4413 19.3366 17.3355 19.3844C17.1536 19.4719 16.9718 19.5621 16.7818 19.6417C16.4859 19.7584 16.182 19.8618 15.8617 19.9812V19.9838ZM9.05198 18.4003C9.05198 18.4003 9.03027 18.3791 9.01941 18.3711C9.05198 18.2968 9.10355 18.2252 9.11984 18.151C9.13069 18.0979 9.11984 18.0449 9.08727 18.0024C9.06555 17.9785 8.99499 17.96 8.9597 17.9732C8.748 18.0608 8.64215 18.2385 8.56344 18.4348C8.5553 18.4586 8.57159 18.509 8.5933 18.525C8.73715 18.6364 8.84571 18.7982 9.08184 18.7398C9.2854 18.6894 9.33968 18.7637 9.38039 18.9759C9.39668 19.0634 9.46182 19.1669 9.53238 19.2199C9.68437 19.3287 9.86079 19.4029 10.0236 19.5011C10.2299 19.6311 10.2353 19.4215 10.3113 19.3446C10.409 19.2438 10.3168 19.1987 10.2408 19.1403C9.94493 18.899 9.65723 18.6549 9.37225 18.4029C9.33154 18.3658 9.31797 18.2915 9.29354 18.2332C9.26911 18.2544 9.2474 18.2756 9.22297 18.2942C9.16869 18.3234 9.11441 18.3605 9.05741 18.3976L9.05198 18.4003ZM18.8092 12.5807C18.7875 13.0236 18.7658 13.448 18.7549 13.8751C18.7549 13.9175 18.7767 13.9838 18.8092 13.9998C18.9856 14.1085 19.1675 14.204 19.3439 14.3022C19.6452 13.7557 19.3439 12.7186 18.8092 12.5807ZM8.5363 18.6178C8.50645 18.6258 8.47388 18.6311 8.44402 18.639C8.43588 18.8327 8.39245 19.0316 8.43045 19.2146C8.52002 19.6868 8.81043 20.0263 9.21212 20.2968C9.69251 20.6205 10.0861 20.4321 10.4742 19.9573C10.276 19.7743 10.1756 19.7663 9.96393 19.899C9.49438 20.1934 9.00042 20.0953 8.73172 19.647C8.55802 19.3579 8.5173 19.0661 8.76972 18.7849C8.68015 18.7212 8.60958 18.6735 8.5363 18.6205V18.6178ZM16.9935 19.1881C16.9881 19.1722 16.9853 19.1563 16.9853 19.1377C16.6298 19.1085 16.277 19.0475 15.9214 19.0555C15.6174 19.0634 15.3134 19.1457 15.0122 19.212C14.9063 19.2332 14.8168 19.3419 14.9443 19.4109C15.194 19.5488 15.4681 19.6894 15.764 19.6072C16.182 19.4905 16.5864 19.3287 16.9935 19.1881ZM10.0155 19.7106C9.87979 19.639 9.75765 19.5939 9.6518 19.5197C9.43196 19.3579 9.2284 19.1801 9.00856 19.0183C8.95428 18.9759 8.86471 18.9467 8.805 18.9653C8.75886 18.9785 8.71543 19.0687 8.70729 19.1324C8.68286 19.4189 8.90542 19.7663 9.18769 19.8963C9.4781 20.0289 9.71966 19.9785 10.0101 19.7133L10.0155 19.7106ZM20.245 15.525C21.2546 15.326 22.229 14.0316 22.1693 12.9785C21.8707 13.2226 21.7052 13.5144 21.6916 13.9149C21.678 14.326 21.4799 14.6788 21.1216 14.9016C20.8855 15.0475 20.6195 15.1457 20.3671 15.2624C20.2396 15.3128 20.1771 15.387 20.245 15.5223V15.525ZM20.2504 13.1271C20.1419 13.0634 20.0686 13.0396 20.0279 12.9945C19.9736 12.9414 19.8976 12.8539 19.9084 12.8035C19.96 12.5886 19.8569 12.4427 19.7049 12.3446C19.4525 12.1748 19.1811 12.0289 18.9096 11.8804C18.8771 11.8592 18.8119 11.8937 18.7631 11.9016C18.7794 11.9467 18.7875 12.0051 18.8174 12.0396C18.8716 12.1006 18.9314 12.1589 18.9992 12.2093C19.2815 12.4215 19.523 12.6602 19.7049 12.9653C19.7836 13.0979 19.8894 13.2146 20.0034 13.3711L20.2477 13.1297L20.2504 13.1271ZM14.2468 10.8274C14.3255 10.9441 14.2495 11.1059 14.4694 11.1059C14.8113 11.1006 15.156 11.1218 15.5007 11.135C15.5903 11.1377 15.707 11.1854 15.6961 11.0342C15.6826 10.9016 15.7341 10.6947 15.5306 10.6815C15.1126 10.6602 14.6892 10.6815 14.2468 10.8274ZM16.3638 9.11647C16.3557 9.14565 16.3475 9.17483 16.3394 9.20401C16.8876 9.41621 17.1536 9.89366 17.4657 10.395C17.5743 10.2305 17.6693 10.1059 17.7399 9.96793C17.7616 9.9308 17.7453 9.85122 17.7154 9.81939C17.615 9.71594 17.5092 9.60719 17.387 9.53292C17.1536 9.39764 16.9121 9.27297 16.6651 9.15892C16.5755 9.12178 16.4669 9.12974 16.3665 9.11647H16.3638ZM10.6777 13.4931C10.6913 13.4693 10.7076 13.448 10.7184 13.4242C10.6479 13.395 10.5719 13.334 10.504 13.3419C10.4362 13.3472 10.352 13.4029 10.3195 13.4613C10.2435 13.5939 10.1838 13.7345 10.1458 13.8804C10.0779 14.1191 10.0236 14.3605 9.98564 14.6072C9.9775 14.6602 10.0643 14.7319 10.1078 14.7982C10.1512 14.7531 10.2082 14.7106 10.2381 14.6576C10.352 14.4454 10.4525 14.2226 10.5665 14.0104C10.713 13.7319 10.7185 13.7292 10.4986 13.4958C10.4742 13.4719 10.4606 13.4374 10.4145 13.3685C10.5285 13.4268 10.6017 13.464 10.6777 13.4958V13.4931ZM21.3333 13.83C20.7471 13.9626 20.4675 14.3579 20.3454 14.8884C20.9697 14.7027 21.3659 14.3738 21.3333 13.83ZM14.6973 9.90693L14.6838 9.81939C14.2604 9.69207 13.8343 9.65494 13.4081 9.81939C13.3756 9.83266 13.3403 9.93876 13.3566 9.9812C13.4543 10.2014 13.7365 10.2889 13.9591 10.1828C14.0405 10.1457 14.1274 10.1165 14.2115 10.082C14.3716 10.021 14.5318 9.96263 14.6919 9.90427L14.6973 9.90693ZM13.913 9.20666C14.4395 9.29419 14.9715 9.38438 15.5034 9.45865C15.6039 9.47191 15.7151 9.41621 15.8318 9.39234C15.5659 9.06077 14.5562 8.95202 13.9102 9.20666H13.913ZM21.0728 12.9281C20.701 13.1801 20.5788 13.5992 20.7525 14.0157C20.9371 13.899 21.1244 13.7876 21.3008 13.6682C21.3225 13.6523 21.3333 13.5886 21.3225 13.5568C21.2465 13.3525 21.1624 13.151 21.0728 12.9308V12.9281ZM10.6696 10.8777C10.3792 10.9281 10.1838 11.135 10.1512 11.4454C10.1213 11.7106 10.0915 11.9892 10.3385 12.1801H10.4308C10.5067 11.7504 10.5882 11.3181 10.6723 10.8777H10.6696ZM9.07098 17.2252C8.85114 16.5913 8.6313 15.9679 8.4196 15.3605C8.25946 15.7451 8.27303 16.3897 8.46574 16.5966V16.1324C8.5743 16.5462 8.64215 16.9732 9.06827 17.2252H9.07098ZM10.1539 13.3393L10.1023 13.2889C10.0128 13.334 9.89607 13.3605 9.84179 13.4348C9.59752 13.7716 9.4781 14.1483 9.51338 14.5621C9.51881 14.6205 9.61381 14.6709 9.6708 14.7239C9.71423 14.6709 9.77122 14.6231 9.79022 14.5621C9.88793 14.2305 9.9775 13.899 10.0698 13.5674C10.0942 13.4878 10.1295 13.4136 10.1593 13.3393H10.1539ZM9.91507 16.4666C9.88522 16.4746 9.86079 16.4825 9.83093 16.4905C9.73866 16.6841 9.62738 16.8751 9.55952 17.0793C9.50796 17.2332 9.73323 17.464 9.85536 17.4136C10.2652 17.2571 10.333 16.9706 10.0372 16.647C9.99107 16.5966 9.95307 16.5276 9.91507 16.464V16.4666ZM10.789 11.8857C11.4105 11.6947 11.4323 11.6629 11.3454 11.1324C11.3373 11.0687 11.3373 11.0077 11.3156 10.9494C11.2938 10.8884 11.2531 10.83 11.2178 10.7663C11.1663 10.8114 11.0821 10.8539 11.0659 10.9069C10.9681 11.2173 10.884 11.5276 10.7863 11.8857H10.789ZM9.77937 11.4374C9.75494 11.4295 9.7278 11.4162 9.70337 11.4083C9.55952 11.6549 9.41839 11.9069 9.27997 12.1589C9.2664 12.1828 9.29625 12.2677 9.32068 12.2756C9.56495 12.3419 9.81194 12.4003 10.0562 12.4613C9.77665 12.1589 9.80379 11.7902 9.77665 11.4374H9.77937ZM15.2157 9.59128L15.1913 9.62841L16.6732 9.96528C16.6868 9.94141 16.6976 9.92019 16.7058 9.89366C16.4859 9.74777 16.2742 9.59923 16.0517 9.46395C16.0137 9.44008 15.9431 9.45069 15.8916 9.45865C15.6636 9.50109 15.441 9.54618 15.2157 9.59128ZM19.1485 16.2464C19.2923 16.2677 19.4009 16.2836 19.5122 16.2968C19.732 16.3207 19.8406 16.1881 19.8677 15.8751C19.8894 15.639 19.7022 15.6921 19.58 15.6921C19.5122 15.6921 19.4226 15.7425 19.3846 15.8008C19.3005 15.9281 19.2381 16.074 19.1485 16.2491V16.2464ZM21.7188 13.3366C21.8029 13.2252 21.8545 13.1669 21.887 13.1032C21.9712 12.9494 22.1232 12.7743 21.9766 12.6151C21.8382 12.4613 21.6346 12.5515 21.4609 12.6098C21.4528 12.6151 21.4446 12.6311 21.4175 12.6682C21.5206 12.8884 21.621 13.1112 21.716 13.334L21.7188 13.3366ZM8.97327 15.0767C8.94342 15.0899 8.91085 15.0979 8.88099 15.1085C8.89728 15.448 8.87557 15.7955 9.11712 16.1695C9.21483 15.9945 9.36682 15.8459 9.33697 15.7504C9.25554 15.5144 9.10084 15.2995 8.97327 15.074V15.0767ZM13.0553 21.0422C13.0716 21.0449 13.0852 21.0502 13.1014 21.0555C13.3131 20.761 13.5194 20.4666 13.7447 20.151C13.229 20.135 13.115 20.2305 13.0906 20.6576C13.0852 20.7849 13.0689 20.9149 13.058 21.0422H13.0553ZM9.87979 12.6974C9.63823 12.6443 9.46182 12.6019 9.2854 12.5727C9.23926 12.5648 9.14155 12.6019 9.13884 12.6311C9.10898 12.838 9.09541 13.0449 9.07913 13.2809C9.22297 13.1563 9.32882 13.0581 9.44553 12.9732C9.56767 12.8831 9.70337 12.8061 9.87979 12.6947V12.6974ZM15.9757 20.6576C15.992 20.6364 16.0083 20.6125 16.0273 20.5913C15.9133 20.4215 15.8047 20.2518 15.6798 20.0899C15.65 20.0475 15.5496 20.0236 15.5061 20.0395C15.4139 20.0846 15.4519 20.4746 15.5523 20.517C15.6826 20.5754 15.8318 20.6125 15.9757 20.6576ZM11.6494 11.4401C11.9615 11.3525 11.9099 11.1244 11.9534 10.952C11.9995 10.769 11.8448 10.7955 11.7471 10.769C11.6277 10.7451 11.5653 10.8008 11.5788 10.9149C11.5924 11.0846 11.6222 11.2518 11.6521 11.4427L11.6494 11.4401ZM15.6093 18.4427C15.783 18.5064 15.9268 18.6072 16.0571 18.5913C16.201 18.5754 16.3312 18.4507 16.4697 18.3764C16.4561 18.3525 16.4479 18.326 16.4371 18.3021C16.1792 18.3685 15.8916 18.1191 15.6093 18.4427ZM13.3729 18.9202C13.6714 19.0608 13.837 18.9785 13.9727 18.6311C13.6144 18.4825 13.5547 18.5117 13.3729 18.9228V18.9202ZM10.8949 19.4507C10.5393 19.265 10.4986 19.273 10.3683 19.517C10.3168 19.6125 10.314 19.6788 10.4308 19.7239C10.6425 19.8141 10.7429 19.7663 10.8949 19.4507ZM7.68136 13.8194C7.74378 14.0555 7.85506 14.2146 8.0559 14.2915C8.10747 14.3128 8.19432 14.3075 8.22961 14.2756C8.25946 14.2464 8.25132 14.151 8.22418 14.1112C8.10476 13.9361 7.94463 13.8247 7.67864 13.822L7.68136 13.8194ZM12.1189 17.8406L11.7607 18.135C11.6684 18.2093 11.663 18.2836 11.7688 18.3472C11.8285 18.3791 11.9208 18.4348 11.9642 18.4136C12.0402 18.3711 12.1298 18.2942 12.1488 18.2146C12.1705 18.1138 12.1352 18.0024 12.1189 17.8406ZM12.5532 19.4082C12.3225 19.2915 12.0728 19.3499 11.9615 19.525C11.9452 19.5541 11.9452 19.6072 11.9615 19.6337C12.0294 19.7425 12.2356 19.7663 12.3279 19.6762C12.4039 19.5966 12.4718 19.5117 12.5532 19.4109V19.4082ZM14.0758 10.5037C14.5074 10.4321 14.928 10.3632 15.3514 10.2968C15.1832 10.1112 14.4992 10.2279 14.0758 10.5037ZM16.1874 10.6735C16.2552 10.8486 16.3014 10.9759 16.3611 11.135C16.5429 11.0024 16.6895 10.899 16.8388 10.7902C16.8361 10.7743 16.8306 10.7584 16.8225 10.7372C16.6325 10.7212 16.4371 10.7 16.1901 10.6762L16.1874 10.6735ZM11.4241 19.3101C11.5463 19.2146 11.6385 19.143 11.7335 19.074C11.625 19.0024 11.5218 18.9043 11.3997 18.8698C11.3617 18.8618 11.2531 19.0183 11.2233 19.1112C11.2151 19.1536 11.3373 19.2279 11.4268 19.3101H11.4241ZM12.7079 18.6868C12.7866 18.578 12.868 18.4931 12.9196 18.3923C12.944 18.3419 12.9495 18.2358 12.9196 18.2093C12.849 18.151 12.7595 18.0634 12.6536 18.1881C12.4881 18.3711 12.4881 18.4533 12.7079 18.6868ZM18.7875 14.4852C18.7875 14.6523 18.6491 14.8433 18.8798 14.9361C19.0101 14.9892 19.1159 14.9149 19.1322 14.7955C19.1702 14.5541 18.9124 14.5886 18.7848 14.4852H18.7875ZM10.8134 19.8698C10.9953 19.9281 11.1717 19.96 11.3237 19.8698C11.2477 19.7451 11.1853 19.647 11.1039 19.5117C10.9681 19.4905 10.8759 19.578 10.8134 19.8671V19.8698ZM18.2528 13.6125C18.2854 13.326 18.3207 13.0396 18.0764 12.8035C17.9244 12.9812 17.9298 12.9971 18.2528 13.6125ZM10.3873 18.9626L10.4335 18.9175C10.3629 18.6762 9.95578 18.3632 9.57581 18.3048C9.84179 18.5197 10.1105 18.7451 10.3873 18.9653V18.9626ZM11.15 12.5807C11.2423 12.6125 11.2938 12.6258 11.3454 12.647C11.5354 12.7292 11.6521 12.6231 11.7471 12.4905C11.7715 12.4533 11.7607 12.3738 11.739 12.3287C11.7308 12.3128 11.6385 12.3128 11.6005 12.3287C11.4648 12.4003 11.3291 12.4825 11.1527 12.5807H11.15ZM14.0541 18.9892C14.1844 18.9892 14.3174 18.9971 14.4476 18.9865C14.4856 18.9812 14.5454 18.9202 14.5481 18.8777C14.5535 18.8353 14.5101 18.7743 14.4721 18.7531C14.2685 18.6364 14.1382 18.7106 14.0541 18.9892ZM11.8177 17.7133C11.8095 17.6841 11.8041 17.6549 11.796 17.6258C11.6657 17.6417 11.5354 17.647 11.4078 17.6708C11.2857 17.6947 11.2803 17.7796 11.3318 17.8751C11.3834 17.9759 11.4404 18.0157 11.5435 17.9281C11.6331 17.8565 11.7254 17.7823 11.8177 17.7133ZM12.4881 19.8433C12.5695 19.8645 12.6265 19.9016 12.6835 19.8937C12.7595 19.8804 12.8816 19.8512 12.8952 19.8061C12.9169 19.7266 12.8735 19.6284 12.8572 19.5356C12.7812 19.5727 12.697 19.5992 12.6373 19.647C12.5776 19.6921 12.545 19.7663 12.4908 19.8433H12.4881ZM10.4552 14.647C10.4796 14.6602 10.5067 14.6709 10.5312 14.6894C10.6832 14.4003 10.9193 14.1589 11.0414 13.8512C11.0089 13.8353 10.9736 13.8141 10.941 13.7982C10.7809 14.082 10.618 14.3658 10.4552 14.647ZM19.5285 16.6231C19.4389 16.6098 19.39 16.5939 19.3466 16.6019C19.2761 16.6178 19.1539 16.647 19.1431 16.6894C19.1268 16.7716 19.1729 16.8645 19.1946 16.952C19.2706 16.9016 19.3493 16.8645 19.4172 16.8061C19.4579 16.769 19.4796 16.7053 19.5257 16.6231H19.5285ZM20.397 12.2915C20.4133 12.2703 20.4295 12.2464 20.4431 12.2252C20.2911 12.1059 20.1473 11.9812 19.9926 11.8698C19.9627 11.8486 19.8949 11.8831 19.846 11.891C19.8623 11.9361 19.8677 12.0077 19.9003 12.0289C20.0604 12.1191 20.2341 12.204 20.3997 12.2942L20.397 12.2915ZM13.7175 19.4136C13.9618 19.6045 14.1898 19.5541 14.2577 19.2889C13.8451 19.2809 13.818 19.2862 13.7175 19.4136ZM20.3128 12.4454C20.4051 12.6072 20.4567 12.7186 20.5245 12.8194C20.5463 12.8486 20.6033 12.8645 20.6412 12.8618C20.6711 12.8565 20.7091 12.8114 20.7118 12.7796C20.7254 12.7053 20.7145 12.6311 20.7145 12.5197C20.625 12.5037 20.4947 12.4825 20.3101 12.448L20.3128 12.4454ZM12.0972 9.81143C12.6238 9.92815 12.7133 9.89366 12.7215 9.58332C12.526 9.65494 12.3415 9.7239 12.0972 9.81143ZM18.3587 11.2332C18.6762 11.4189 18.9042 11.456 19.0291 11.3579C18.8092 11.1961 18.5134 11.1324 18.3587 11.2332ZM19.9573 14.8327C19.9953 14.6788 20.0279 14.5594 20.0496 14.4348C20.055 14.4029 20.017 14.334 19.9871 14.3313C19.9492 14.3234 19.8894 14.3525 19.865 14.3817C19.7673 14.4825 19.7972 14.6841 19.9573 14.8327ZM9.2664 16.6443C9.29897 16.6576 9.33425 16.6655 9.36682 16.6762C9.44282 16.5276 9.52424 16.3791 9.59209 16.2199C9.60566 16.1881 9.57581 16.1377 9.56224 16.0953C9.51881 16.1112 9.45367 16.1165 9.4401 16.1457C9.37768 16.3101 9.32611 16.4772 9.2664 16.6443ZM18.489 17.5966C18.5025 17.5674 18.5134 17.5329 18.527 17.5064C18.4591 17.464 18.3533 17.3685 18.3288 17.387C18.2447 17.448 18.1823 17.5435 18.1253 17.6364C18.1171 17.6496 18.1931 17.7451 18.2067 17.7372C18.3044 17.7 18.3967 17.647 18.489 17.5992V17.5966ZM12.1461 11.4029C12.4962 11.4454 12.6156 11.4003 12.7486 11.151C12.5369 11.2411 12.3089 11.1801 12.1461 11.4029ZM11.0034 12.2464C11.0197 12.2677 11.0333 12.2915 11.0496 12.3128C11.1934 12.2464 11.34 12.1854 11.4811 12.1085C11.5137 12.0873 11.5245 12.021 11.5435 11.9759C11.492 11.9706 11.4295 11.9441 11.3997 11.9626C11.2613 12.0502 11.1337 12.1483 11.0034 12.2438V12.2464ZM10.3412 17.212C10.2191 17.3234 10.1268 17.4109 9.99378 17.5303H10.4878C10.4362 17.4215 10.3982 17.3393 10.3412 17.212ZM15.2592 20.3552C15.2592 20.2809 15.2754 20.2305 15.2537 20.2067C15.2076 20.1457 15.156 20.0661 15.0936 20.0502C15.042 20.0369 14.9715 20.1006 14.909 20.1324C14.9633 20.1854 15.0095 20.2438 15.0746 20.2889C15.1126 20.3128 15.1723 20.3207 15.2592 20.3552ZM20.1988 14.0687C20.2287 14.0634 20.2586 14.0634 20.2884 14.0608C20.3047 13.9494 20.3346 13.8406 20.3346 13.7292C20.3346 13.6868 20.2721 13.647 20.2341 13.6045C20.1961 13.647 20.1201 13.6921 20.1256 13.7292C20.1337 13.8459 20.1717 13.9573 20.2016 14.0687H20.1988ZM12.9657 10.3472C12.944 10.3605 12.9223 10.3685 12.9033 10.3791C12.9793 10.5329 13.0607 10.6868 13.134 10.8353C13.2344 10.5648 13.172 10.4242 12.9657 10.3446V10.3472ZM12.6373 11.0926V11.0475C12.5369 11.0051 12.4338 10.9573 12.3279 10.9281C12.2953 10.9202 12.2275 10.9441 12.2058 10.9732C12.1814 11.021 12.1759 11.0767 12.1922 11.1271C12.2004 11.151 12.2736 11.1695 12.3143 11.1642C12.4229 11.143 12.5288 11.1191 12.6346 11.0953L12.6373 11.0926ZM7.12768 13.899C7.24981 13.9573 7.37738 14.0157 7.52122 14.082C7.52665 13.7743 7.41537 13.7159 7.12768 13.899ZM9.63009 15.1563C9.60566 15.1695 9.58395 15.1801 9.55952 15.1881C9.63009 15.3287 9.70337 15.4746 9.77394 15.6151C9.89336 15.3791 9.83365 15.2464 9.63009 15.1536V15.1563ZM13.9021 17.8512C13.7203 17.8061 13.5601 17.7637 13.4054 17.7266C13.6008 17.9918 13.7773 18.0369 13.9021 17.8512ZM12.4202 10.2067C12.3198 10.1934 12.2519 10.1695 12.2058 10.1854C12.1461 10.2093 12.0918 10.265 12.0484 10.3181C12.0348 10.3393 12.0647 10.3897 12.0728 10.4268C12.1352 10.4109 12.2031 10.4029 12.2574 10.3685C12.3035 10.3472 12.3333 10.2968 12.4175 10.2067H12.4202ZM10.8243 18.7451L10.7863 18.7955C10.8867 18.8751 10.9844 18.952 11.0957 19.0395C11.2043 18.7982 11.1581 18.7584 10.8243 18.7451ZM13.7691 9.59658C13.495 9.47987 13.3511 9.5064 13.2209 9.71329C13.4326 9.6682 13.6008 9.63106 13.7691 9.59658ZM16.2118 11.9838C16.2037 12.0263 16.1928 12.0687 16.182 12.1138C16.2715 12.1457 16.3584 12.1801 16.4534 12.2093C16.4588 12.1457 16.4832 12.0396 16.4669 12.0342C16.3909 12.0024 16.2987 11.9971 16.2145 11.9838H16.2118ZM18.7115 16.5223C18.5677 16.5674 18.4672 16.5966 18.3695 16.6311C18.3994 16.6682 18.4238 16.7345 18.4672 16.7425C18.5812 16.7716 18.6817 16.7478 18.7115 16.5223ZM19.8433 13.6549C19.8433 13.6549 19.8297 13.6576 19.8216 13.6629C19.8297 13.7929 19.8352 13.9202 19.8514 14.0475C19.8596 14.1006 19.8922 14.1563 19.9193 14.204C19.9247 14.212 19.9871 14.1961 19.9899 14.1881C19.9926 14.1297 19.998 14.0687 19.9817 14.013C19.941 13.8884 19.8894 13.7716 19.8433 13.6523V13.6549ZM17.7127 18.5303C17.6883 18.517 17.6666 18.5064 17.6422 18.4931C17.5824 18.5807 17.5282 18.6682 17.4685 18.7584C17.501 18.7743 17.5444 18.8114 17.5689 18.8008C17.7046 18.7557 17.7507 18.6602 17.7127 18.5303ZM18.4971 14.8327C18.5188 14.8327 18.5351 14.83 18.5568 14.83V14.3897H18.4971V14.8327ZM19.2136 15.7451C19.2136 15.7451 19.1973 15.7159 19.1838 15.7027C19.1159 15.7372 19.0155 15.7531 18.9938 15.8061C18.9694 15.8592 19.0236 15.9441 19.0399 16.0183H19.0942C19.1349 15.9228 19.1729 15.8327 19.2109 15.7451H19.2136ZM19.2055 11.5807C19.3222 11.6523 19.4118 11.7 19.5176 11.7663C19.4715 11.4931 19.4416 11.4719 19.2055 11.5807ZM12.7378 11.6231C12.7513 11.639 12.7622 11.6602 12.7757 11.6762C12.9033 11.5939 13.0282 11.5117 13.1557 11.4242C13.134 11.4003 13.1177 11.3738 13.096 11.3446C12.9766 11.4401 12.8599 11.5303 12.7378 11.6231ZM20.0116 13.4852C20.0333 13.509 20.055 13.5303 20.0713 13.5568C20.1907 13.5356 20.2857 13.4931 20.2857 13.3605C20.264 13.3393 20.2477 13.3181 20.226 13.2995C20.1581 13.3605 20.0821 13.4242 20.0116 13.4852ZM18.2067 18.1642C17.9163 18.1854 17.8783 18.2385 17.995 18.4268C18.0656 18.3393 18.1307 18.2624 18.2067 18.1642ZM16.5267 18.6576L16.5511 18.7186C16.6569 18.6815 16.7628 18.639 16.8713 18.6019C16.8632 18.578 16.8551 18.5515 16.8415 18.5223C16.6976 18.4586 16.6216 18.6019 16.5239 18.6549L16.5267 18.6576ZM17.5824 12.387L17.5689 12.2783C17.501 12.2836 17.4305 12.2836 17.3626 12.2862C17.368 12.3366 17.368 12.387 17.3707 12.4348C17.4386 12.4189 17.5092 12.4029 17.5824 12.3844V12.387ZM13.8777 11.2491L13.9672 11.1881C13.913 11.1218 13.8614 11.0555 13.8017 10.9918C13.7963 10.9865 13.7501 11.0236 13.7257 11.0449C13.7718 11.1112 13.8261 11.1828 13.8777 11.2491ZM7.94191 15.8008C7.96362 15.8061 7.98805 15.8088 8.00976 15.8088C8.03419 15.6762 8.06405 15.5435 8.08847 15.4109L7.99891 15.3976C7.9772 15.5329 7.96091 15.6655 7.9392 15.8008H7.94191Z" fill="white"/>
</g>
</svg>
