<svg width="32" height="32" viewBox="0 0 32 32" fill="none" xmlns="http://www.w3.org/2000/svg">
<path fill-rule="evenodd" clip-rule="evenodd" d="M8.23687 15.0271C13.0688 13.0512 16.2909 11.7489 17.903 11.1195C22.5061 9.32273 23.4625 9.01037 24.0857 9.0001C24.2229 8.99792 24.5292 9.02966 24.7281 9.18086C24.8959 9.30842 24.9419 9.4811 24.9641 9.60212C24.9864 9.72315 25.0139 9.99911 24.992 10.2144C24.7427 12.6741 23.6634 18.6433 23.1141 21.3983C22.8817 22.564 22.4242 22.9548 21.9813 22.9931C21.0187 23.0761 20.2881 22.396 19.3556 21.8226C17.8967 20.9251 17.0726 20.3666 15.6567 19.4908C14.0201 18.4787 15.0813 17.9224 16.0138 17.0133C16.2577 16.7753 20.4989 13.1551 20.5808 12.8266C20.5911 12.7855 20.6007 12.6324 20.5035 12.5515C20.4064 12.4707 20.2635 12.4983 20.1604 12.5204C20.0143 12.5515 17.6838 13.9973 13.1692 16.8575C12.5079 17.2837 11.9085 17.4915 11.3718 17.4806C10.7801 17.4685 9.64175 17.1667 8.79544 16.9085C7.75753 16.5918 6.93244 16.4244 7.00437 15.8865C7.04183 15.6064 7.45289 15.3199 8.23754 15.0271H8.23687Z" fill="black"/>
</svg>
