<?xml version="1.0" encoding="UTF-8"?>
<svg id="_Слой_1" data-name="Слой 1" xmlns="http://www.w3.org/2000/svg" width="32" height="32" version="1.1" viewBox="0 0 32 32">
  <path d="M20.806,14.923c1.178,0,2.064-.489,2.718-1.34l-.874-.664c-.216.283-.495.513-.815.67-.32.158-.673.239-1.03.238-1.278,0-2.205-1.037-2.205-2.31s.911-2.369,2.241-2.369c.591,0,1.009.139,1.373.364v1.119h1.1v-1.632l-.211-.165c-.604-.474-1.528-.725-2.299-.725-1.886,0-3.42,1.528-3.42,3.407s1.534,3.406,3.421,3.406ZM23.087,21.643l-.039-1.568v-3.828h-2.293v1.096h1.135v2.597c0,1.119-.858,1.911-1.723,1.911s-1.317-.598-1.317-1.716v-3.888h-2.142v1.096h.984v2.982c0,1.518.854,2.563,2.378,2.563.876,0,1.542-.484,1.94-1.23h.018l.157,1.043h1.762v-1.056h-.858v-.002h-.001ZM17.132,8.271h-1.911l-1.662,4.808h-.026l-1.653-4.808h-2.036v1.096h1.145l1.971,5.48h1.047s2.056-5.479,2.056-5.479h1.069v-1.096h0ZM8.054,22.715h1.132v-1.128h-1.132v1.128h0ZM12.427,17.518h-.012l-.071-1.271h-2.021v.999h1.076v4.398h-1.076v1.057h4.996v-1.036h-2.781v-2.654c.126-.961.849-1.781,1.836-1.781h.018l-.02.982h1.1v-1.982h-.869c-.995-.003-1.734.534-2.173,1.289h0Z" fill="#000"/>
</svg>
