<?xml version="1.0" encoding="utf-8"?>
<!-- Generator: Adobe Illustrator 26.1.0, SVG Export Plug-In . SVG Version: 6.00 Build 0)  -->
<svg version="1.1" id="Слой_1" xmlns="http://www.w3.org/2000/svg" xmlns:xlink="http://www.w3.org/1999/xlink" x="0px" y="0px"
	 viewBox="0 0 28 28" style="enable-background:new 0 0 28 28;" xml:space="preserve">
<style type="text/css">
	.st0{fill:#26B3E8;}
</style>
<path class="st0" d="M13.3,25.7c-1.4,0-2.7-0.2-4-0.7c-2.3-0.9-4.2-2.5-5.6-4.5c-0.2-0.3-0.1-0.8,0.2-1c0.3-0.2,0.8-0.1,1,0.2
	c1.2,1.8,2.8,3.2,4.8,3.9c2,0.8,4.1,0.8,6.2,0.3c2.1-0.6,3.8-1.8,5.1-3.5c1.3-1.7,2-3.8,2.1-5.9c0-2.2-0.6-4.3-1.8-6
	c-1.2-1.7-3-3.1-5-3.7c-2-0.7-4.2-0.7-6.2,0C8.4,5.2,6.7,6.4,5.5,8h5.2c0.4,0,0.8,0.3,0.8,0.8s-0.3,0.8-0.8,0.8H4
	c-0.4,0-0.8-0.3-0.8-0.8V2c0-0.4,0.3-0.8,0.8-0.8S4.8,1.6,4.8,2v4.5c1.3-1.5,3.1-2.7,5-3.4c2.3-0.8,4.8-0.8,7.1,0
	c2.3,0.8,4.3,2.3,5.7,4.3c1.4,2,2.1,4.4,2.1,6.9c-0.1,2.5-0.9,4.8-2.4,6.8c-1.5,2-3.5,3.4-5.9,4.1C15.4,25.6,14.4,25.7,13.3,25.7z"
	/>
</svg>
