<?xml version="1.0" encoding="utf-8"?>
<!-- Generator: Adobe Illustrator 26.1.0, SVG Export Plug-In . SVG Version: 6.00 Build 0)  -->
<svg version="1.1" id="Слой_1" xmlns="http://www.w3.org/2000/svg" xmlns:xlink="http://www.w3.org/1999/xlink" x="0px" y="0px"
	 viewBox="0 0 28 28" style="enable-background:new 0 0 28 28;" xml:space="preserve">
<style type="text/css">
	.st0{fill:#26B3E8;}
</style>
<path class="st0" d="M17.5,25.2h-7c-3.5,0-5.3,0-6.5-1.2c-1.2-1.2-1.2-3-1.2-6.5c0-0.4,0.3-0.8,0.8-0.8s0.8,0.3,0.8,0.8
	c0,3.1,0,4.6,0.8,5.4c0.8,0.8,2.4,0.8,5.4,0.8h7c3.1,0,4.6,0,5.4-0.8s0.8-2.4,0.8-5.4c0-0.4,0.3-0.8,0.8-0.8s0.8,0.3,0.8,0.8
	c0,3.5,0,5.3-1.2,6.5S21,25.2,17.5,25.2z"/>
<path class="st0" d="M14,19.4L14,19.4L14,19.4C14,19.4,14,19.4,14,19.4L14,19.4C14,19.4,14,19.4,14,19.4C14,19.4,14,19.4,14,19.4
	c-0.1,0-0.2,0-0.3,0c0,0,0,0,0,0c0,0,0,0,0,0c0,0,0,0-0.1,0c-0.1,0-0.1-0.1-0.2-0.1c0,0,0,0,0,0l-4.7-5.1c-0.3-0.3-0.3-0.8,0-1.1
	c0.3-0.3,0.8-0.3,1.1,0l3.4,3.7V3.5c0-0.4,0.3-0.8,0.8-0.8c0.4,0,0.7,0.3,0.7,0.8v13.2l3.4-3.7c0.3-0.3,0.8-0.3,1.1,0
	c0.3,0.3,0.3,0.8,0,1.1l-4.7,5.1c0,0,0,0,0,0c-0.1,0.1-0.1,0.1-0.2,0.1c0,0,0,0,0,0c0,0,0,0,0,0l0,0C14.2,19.4,14.1,19.4,14,19.4
	L14,19.4C14,19.4,14,19.4,14,19.4z"/>
</svg>
