<?xml version="1.0" encoding="utf-8"?>
<!-- Generator: Adobe Illustrator 26.1.0, SVG Export Plug-In . SVG Version: 6.00 Build 0)  -->
<svg version="1.1" id="Слой_1" xmlns="http://www.w3.org/2000/svg" xmlns:xlink="http://www.w3.org/1999/xlink" x="0px" y="0px"
	 viewBox="0 0 28 28" style="enable-background:new 0 0 28 28;" xml:space="preserve">
<style type="text/css">
	.st0{fill:#16A3D8;}
</style>
<path class="st0" d="M18.4,27.9H9.6c-1.5,0-2.2,0-2.9-0.3c-0.9-0.4-1.6-1.1-2-2c-0.3-0.7-0.3-1.4-0.3-2.9c0-0.3,0-0.5,0-0.7
	c-1,0-1.6-0.1-2.1-0.3c-0.9-0.4-1.6-1.1-2-2c-0.3-0.7-0.3-1.4-0.3-2.9v-5.5c0-1.8,0-2.6,0.4-3.4c0.4-0.7,0.9-1.2,1.6-1.6
	C2.7,6,3.4,6,4.5,6V5.5c0-1.8,0-2.6,0.4-3.4c0.4-0.7,0.9-1.2,1.6-1.6c0.8-0.4,1.7-0.4,3.4-0.4h8.2c1.8,0,2.6,0,3.4,0.4
	c0.7,0.4,1.2,0.9,1.6,1.6c0.4,0.8,0.4,1.7,0.4,3.4V6c1.1,0,1.8,0.1,2.4,0.4c0.7,0.4,1.2,0.9,1.6,1.6c0.4,0.8,0.4,1.7,0.4,3.4v5.5
	c0,1.5,0,2.2-0.3,2.9c-0.4,0.9-1.1,1.6-2,2C25.1,22,24.5,22,23.5,22c0,0.2,0,0.5,0,0.7c0,1.5,0,2.2-0.3,2.9c-0.4,0.9-1.1,1.6-2,2
	C20.6,27.9,19.8,27.9,18.4,27.9z M9.6,19.1c-1.2,0-1.9,0-2.3,0.2c-0.5,0.2-1,0.6-1.2,1.2C6,20.9,6,21.5,6,22.8s0,1.9,0.2,2.3
	c0.2,0.5,0.6,1,1.2,1.2c0.4,0.2,1.1,0.2,2.3,0.2h8.8c1.2,0,1.9,0,2.3-0.2c0.5-0.2,1-0.6,1.2-1.2C22,24.6,22,24,22,22.8
	c0-1.2,0-1.9-0.2-2.3c-0.2-0.5-0.6-1-1.2-1.2c-0.4-0.2-1.1-0.2-2.3-0.2H9.6z M5.3,7.5c-1.4,0-2,0-2.4,0.2C2.4,7.9,2.1,8.2,1.9,8.6
	c-0.2,0.5-0.2,1.3-0.2,2.7v5.5c0,1.2,0,1.9,0.2,2.3c0.2,0.5,0.6,1,1.2,1.2c0.3,0.1,0.8,0.2,1.6,0.2c0-0.2,0.1-0.4,0.2-0.7
	c0.4-0.9,1.1-1.6,2-2c0.7-0.3,1.4-0.3,2.9-0.3h8.8c1.5,0,2.2,0,2.9,0.3c0.9,0.4,1.6,1.1,2,2c0.1,0.2,0.1,0.4,0.2,0.7
	c0.8,0,1.3,0,1.6-0.2c0.5-0.2,1-0.6,1.2-1.2c0.2-0.4,0.2-1.1,0.2-2.3v-5.5c0-1.5,0-2.3-0.2-2.7c-0.2-0.4-0.5-0.7-0.9-0.9
	c-0.4-0.2-1.1-0.2-2.4-0.2H5.3z M6,6h16V5.5c0-1.5,0-2.3-0.2-2.7c-0.2-0.4-0.5-0.7-0.9-0.9c-0.5-0.2-1.3-0.2-2.7-0.2H9.9
	c-1.5,0-2.3,0-2.7,0.2C6.8,2.1,6.4,2.4,6.2,2.8C6,3.3,6,4.1,6,5.5V6z M16.9,13.3h-5.8c-0.4,0-0.8-0.3-0.8-0.8s0.3-0.8,0.8-0.8h5.8
	c0.4,0,0.8,0.3,0.8,0.8S17.3,13.3,16.9,13.3z"/>
</svg>
