<?xml version="1.0" encoding="utf-8"?>
<!-- Generator: Adobe Illustrator 26.1.0, SVG Export Plug-In . SVG Version: 6.00 Build 0)  -->
<svg version="1.1" id="Слой_1" xmlns="http://www.w3.org/2000/svg" xmlns:xlink="http://www.w3.org/1999/xlink" x="0px" y="0px"
	 viewBox="0 0 24 24" style="enable-background:new 0 0 24 24;" xml:space="preserve">
<path d="M12,22.2c-0.8,0-1.6-0.2-2.4-0.6l-5-2.8c-1.5-0.8-2.4-2.4-2.4-4.1l0-2.8l0-2.8c0-1.7,0.9-3.2,2.4-4.1l5-2.8
	c1.5-0.8,3.3-0.8,4.8,0l5,2.8c1.5,0.8,2.4,2.4,2.4,4.1l0,2.8l0,2.8c0,1.7-0.9,3.2-2.4,4.1l-5,2.8C13.6,22,12.8,22.2,12,22.2z
	 M12,3.3c-0.6,0-1.1,0.1-1.7,0.4L5.4,6.5C4.4,7,3.8,8.1,3.8,9.2l0,2.8l0,2.8c0,1.1,0.6,2.2,1.6,2.8l4.9,2.8c1,0.6,2.3,0.6,3.3,0
	l4.9-2.8c1-0.6,1.6-1.6,1.6-2.8l0-2.8l0-2.8c0-1.1-0.6-2.2-1.6-2.8l-4.9-2.8C13.1,3.4,12.6,3.3,12,3.3z M12,15.7
	c-2.1,0-3.8-1.7-3.8-3.7S9.9,8.3,12,8.3s3.8,1.7,3.8,3.7S14.1,15.7,12,15.7z M12,9.8c-1.3,0-2.3,1-2.3,2.2s1,2.2,2.3,2.2
	s2.3-1,2.3-2.2S13.3,9.8,12,9.8z"/>
</svg>
