<?xml version="1.0" encoding="utf-8"?>
<!-- Generator: Adobe Illustrator 26.1.0, SVG Export Plug-In . SVG Version: 6.00 Build 0)  -->
<svg version="1.1" id="Слой_1" xmlns="http://www.w3.org/2000/svg" xmlns:xlink="http://www.w3.org/1999/xlink" x="0px" y="0px"
	 viewBox="0 0 28 28" style="enable-background:new 0 0 28 28;" xml:space="preserve">
<style type="text/css">
	.st0{fill:#26B3E8;}
</style>
<path class="st0" d="M22.3,22.8H6.9c-3.7,0-6.7-3.1-6.7-6.8c0-3.4,2.5-6.3,5.8-6.8c1.6-3,4.6-4.9,8-4.9c4.3,0,8,3.1,8.8,7.3
	c2.8,0.3,4.9,2.7,4.9,5.6C27.8,20.2,25.3,22.8,22.3,22.8z M14,5.8c-2.9,0-5.6,1.7-6.8,4.4c-0.1,0.2-0.4,0.4-0.6,0.4
	c-2.7,0.2-4.8,2.5-4.8,5.3c0,2.9,2.3,5.3,5.2,5.3h15.4c2.2,0,4-1.8,4-4.1s-1.8-4.1-4-4.1c-0.4,0-0.8-0.3-0.8-0.6
	C20.9,8.6,17.7,5.8,14,5.8z M14,17.9C14,17.9,14,17.9,14,17.9c-0.1,0-0.1,0-0.2,0c0,0-0.1,0-0.1-0.1c0,0-0.1,0-0.1-0.1L10,15.3
	c-0.3-0.2-0.4-0.7-0.2-1c0.2-0.3,0.7-0.4,1-0.2l2.4,1.6V9.9c0-0.4,0.3-0.8,0.8-0.8s0.8,0.3,0.8,0.8v5.9l2.4-1.6
	c0.3-0.2,0.8-0.1,1,0.2c0.2,0.3,0.1,0.8-0.2,1l-3.5,2.4c0,0-0.1,0-0.1,0.1c0,0-0.1,0-0.1,0.1l0,0c0,0,0,0,0,0
	C14.1,17.9,14.1,17.9,14,17.9z"/>
</svg>
