<?xml version="1.0" encoding="utf-8"?>
<!-- Generator: Adobe Illustrator 26.1.0, SVG Export Plug-In . SVG Version: 6.00 Build 0)  -->
<svg version="1.1" id="Слой_1" xmlns="http://www.w3.org/2000/svg" xmlns:xlink="http://www.w3.org/1999/xlink" x="0px" y="0px"
	 viewBox="0 0 28 28" style="enable-background:new 0 0 28 28;" xml:space="preserve">
<style type="text/css">
	.st0{fill:#26B3E8;}
</style>
<path class="st0" d="M22.4,24.8H5.6c-1.7,0-2.6,0-3.4-0.4C1.6,24,1,23.5,0.6,22.8c-0.4-0.8-0.4-1.6-0.4-3.4V8.6c0-1.7,0-2.6,0.4-3.4
	C1,4.5,1.5,4,2.2,3.6C3,3.2,3.9,3.2,5.6,3.2h16.8c1.7,0,2.6,0,3.4,0.4C26.5,4,27,4.5,27.4,5.2c0.4,0.8,0.4,1.6,0.4,3.4v10.9
	c0,1.7,0,2.6-0.4,3.3c-0.4,0.7-0.9,1.2-1.6,1.6C25,24.8,24.1,24.8,22.4,24.8z M1.9,6C1.8,6.4,1.8,7.2,1.8,8.6v10.9
	c0,1.4,0,2.2,0.2,2.7c0.2,0.4,0.5,0.7,0.9,0.9c0.5,0.2,1.3,0.2,2.7,0.2h16.8c1.4,0,2.2,0,2.7-0.2c0.4-0.2,0.7-0.5,0.9-0.9
	c0.2-0.4,0.2-1.2,0.2-2.7V8.6c0-1.3,0-2.1-0.2-2.6c0,0,0,0-0.1,0c-3.1,2.3-8.8,6.5-8.8,6.6c-1,0.8-1.6,1.2-2.3,1.3
	c-0.6,0.2-1.2,0.2-1.8,0c-0.7-0.2-1.2-0.6-2.3-1.3L1.9,6C2,6,2,6,1.9,6z M3,4.9l8.7,6.5c0.9,0.6,1.3,1,1.7,1.1
	c0.4,0.1,0.7,0.1,1.1,0c0.4-0.1,0.9-0.4,1.8-1.1c0,0,5.5-4.2,8.7-6.5c-0.5-0.2-1.2-0.2-2.6-0.2H5.6C4.3,4.8,3.5,4.8,3,4.9z"/>
</svg>
