<?xml version="1.0" encoding="utf-8"?>
<!-- Generator: Adobe Illustrator 26.1.0, SVG Export Plug-In . SVG Version: 6.00 Build 0)  -->
<svg version="1.1" id="Слой_1" xmlns="http://www.w3.org/2000/svg" xmlns:xlink="http://www.w3.org/1999/xlink" x="0px" y="0px"
	 viewBox="0 0 28 28" style="enable-background:new 0 0 28 28;" xml:space="preserve">
<style type="text/css">
	.st0{fill:#26B3E8;}
</style>
<path class="st0" d="M10,26.8c0,0-0.1,0-0.1,0c0,0-0.1,0-0.1,0l-6.2-2.1c-1.4-0.5-2.3-1.8-2.3-3.2V5.7c0-1.1,0.5-2.1,1.4-2.8
	c0.9-0.6,2-0.8,3.1-0.5L10,3.9l7.7-2.6c0,0,0.1,0,0.1,0c0,0,0.1,0,0.1,0c0,0,0.1,0,0.1,0c0,0,0.1,0,0.1,0l6.2,2.1
	c1.4,0.5,2.3,1.8,2.3,3.2v15.7c0,1.1-0.5,2.1-1.4,2.8c-0.9,0.7-2,0.8-3.1,0.5L18,24.1l-7.7,2.6c0,0-0.1,0-0.1,0
	C10.1,26.7,10,26.8,10,26.8z M4.7,3.8c-0.4,0-0.8,0.1-1.1,0.4C3,4.5,2.8,5.1,2.8,5.7v15.7c0,0.8,0.5,1.6,1.3,1.8L9.2,25V5.2l-4-1.3
	C5.1,3.8,4.9,3.8,4.7,3.8z M10.8,5.2V25l6.5-2.2V3L10.8,5.2z M18.8,22.8l4,1.3c0.6,0.2,1.2,0.1,1.7-0.3s0.8-0.9,0.8-1.6V6.6
	c0-0.8-0.5-1.6-1.3-1.8L18.8,3V22.8z"/>
</svg>
