<?xml version="1.0" encoding="utf-8"?>
<!-- Generator: Adobe Illustrator 26.1.0, SVG Export Plug-In . SVG Version: 6.00 Build 0)  -->
<svg version="1.1" id="Слой_1" xmlns="http://www.w3.org/2000/svg" xmlns:xlink="http://www.w3.org/1999/xlink" x="0px" y="0px"
	 viewBox="0 0 24 24" style="enable-background:new 0 0 24 24;" xml:space="preserve">
<style type="text/css">
	.st0{fill:#26B3E8;}
</style>
<path class="st0" d="M12,0C5.4,0,0,5.4,0,12s5.4,12,12,12s12-5.4,12-12S18.6,0,12,0z M20,13h-7v7c0,0.6-0.4,1-1,1c-0.6,0-1-0.4-1-1
	v-7H4c-0.6,0-1-0.4-1-1c0-0.6,0.4-1,1-1h7V4c0-0.6,0.4-1,1-1c0.6,0,1,0.4,1,1v7h7c0.6,0,1,0.4,1,1C21,12.6,20.6,13,20,13z"/>
</svg>
