
<svg version="1.1" id="Layer_1" xmlns="http://www.w3.org/2000/svg" xmlns:xlink="http://www.w3.org/1999/xlink" x="0px" y="0px"
	 width="595.281px" height="595.28px" viewBox="0 123.305 595.281 595.28" enable-background="new 0 123.305 595.281 595.28"
	 xml:space="preserve">
<path d="M297.64,718.586C133.938,718.586,0,584.647,0,420.945s133.938-297.64,297.64-297.64
	c163.701,0,297.641,133.938,297.641,297.64S461.341,718.586,297.64,718.586z M297.64,148.108
	c-151.3,0-272.837,121.536-272.837,272.837S146.34,693.782,297.64,693.782c151.301,0,272.836-121.536,272.836-272.837
	S448.941,148.108,297.64,148.108z"/>
<path d="M235.632,527.599l-42.166-84.331h-27.284v84.331h-42.166V316.771h81.851c42.166,0,69.45,29.764,69.45,64.488
	c0,29.765-17.363,47.127-39.686,54.567l47.126,91.772H235.632L235.632,527.599z M203.387,353.976h-37.205v57.048h39.685
	c17.362,0,29.764-12.402,29.764-27.284S223.23,353.976,203.387,353.976z"/>
<path d="M394.373,530.08c-44.645,0-76.891-29.764-76.891-74.41V316.771h42.166V455.67c0,24.804,14.883,39.686,37.205,39.686
	c22.324,0,37.205-14.882,37.205-39.686V316.771h37.205V455.67C471.263,500.316,436.539,530.08,394.373,530.08z"/>
</svg>
