<svg version="1.1" id="Layer_1" xmlns="http://www.w3.org/2000/svg" xmlns:xlink="http://www.w3.org/1999/xlink" x="0px" y="0px"
	 viewBox="0 0 24 24" style="enable-background:new 0 0 24 24;" xml:space="preserve">
<path d="M12,24C5.4,24,0,18.6,0,12S5.4,0,12,0s12,5.4,12,12S18.6,24,12,24z M12,1C5.9,1,1,5.9,1,12c0,6.1,4.9,11,11,11
	c6.1,0,11-4.9,11-11C23,5.9,18.1,1,12,1z"/>
<path d="M5,16.2V7.6h5.6v1.5h-4v2H10v1.5H6.7v2.1h4v1.5L5,16.2L5,16.2z"/>
<path d="M17.3,16.2l-3.4-5.2v5.2h-1.7V7.6h1.5l3.4,5.2V7.6h1.7v8.5H17.3z"/>
</svg>
