<svg version="1.1" id="Layer_1" xmlns="http://www.w3.org/2000/svg" xmlns:xlink="http://www.w3.org/1999/xlink" x="0px" y="0px"
	 width="28px" height="26px" viewBox="2 4 28 26" enable-background="new 2 4 28 26" xml:space="preserve">
<path d="M12,12h5.535v2.837h0.078C18.384,13.456,20.27,12,23.078,12C28.92,12,30,15.637,30,20.367V30h-5.77v-8.54
	c0-2.037-0.041-4.657-3-4.657c-3.006,0-3.463,2.219-3.463,4.51V30H12V12z"/>
<path d="M2,12h6v18H2V12z"/>
<path d="M8,7c0,1.657-1.343,3-3,3S2,8.657,2,7s1.343-3,3-3S8,5.343,8,7z"/>
</svg>
