<svg version="1.1" id="Layer_1" xmlns="http://www.w3.org/2000/svg" xmlns:xlink="http://www.w3.org/1999/xlink" x="0px" y="0px"
	 width="20px" height="32px" viewBox="6 0 20 32" enable-background="new 6 0 20 32" xml:space="preserve">
<path d="M16,0C10.477,0,6,4.477,6,10c0,10,10,22,10,22s10-12,10-22C26,4.477,21.523,0,16,0z M16,16.125
	c-3.383,0-6.125-2.742-6.125-6.125S12.617,3.875,16,3.875S22.125,6.617,22.125,10S19.383,16.125,16,16.125z M12.125,10
	c0-2.14,1.735-3.875,3.875-3.875c2.141,0,3.875,1.735,3.875,3.875S18.141,13.875,16,13.875C13.86,13.875,12.125,12.14,12.125,10z"/>
</svg>
