<svg version="1.1" id="Layer_1" xmlns="http://www.w3.org/2000/svg" xmlns:xlink="http://www.w3.org/1999/xlink" x="0px" y="0px"
	 width="19px" height="12px" viewBox="0 6 19 12" enable-background="new 0 6 19 12" xml:space="preserve">
<path d="M17.5,6h-16C0.673,6,0,6.673,0,7.5v9C0,17.327,0.673,18,1.5,18h16c0.827,0,1.5-0.673,1.5-1.5v-9C19,6.673,18.327,6,17.5,6z
	 M17.5,7c0.029,0,0.059,0.003,0.087,0.008l-7.532,5.021c-0.29,0.193-0.819,0.193-1.109,0L1.414,7.008C1.442,7.003,1.471,7,1.501,7
	H17.5L17.5,7z M17.5,17h-16C1.224,17,1,16.775,1,16.5V7.934l7.391,4.927c0.311,0.207,0.71,0.311,1.109,0.311
	s0.798-0.104,1.109-0.311L18,7.934V16.5C18,16.775,17.775,17,17.5,17z"/>
</svg>
