<svg version="1.1" id="Layer_1" xmlns="http://www.w3.org/2000/svg" xmlns:xlink="http://www.w3.org/1999/xlink" x="0px" y="0px"
	 width="297.002px" height="426.519px" viewBox="0 0 297.002 426.519" enable-background="new 0 0 297.002 426.519"
	 xml:space="preserve">
<path d="M0,214.007C4.335,325.41,94.985,354.929,127.359,359.626c0,7.867-0.024,57.867-0.024,66.893
	c4.257,0,26.917,0,42.417,0c0-10.274,0.102-58.649,0.102-66.168c72.055-10.302,127.148-71.979,127.148-146.357h-42.417
	c0,53.132-47.22,105.488-105.901,105.488c-29.354,0-104.349-24.071-106.267-105.476"/>
<path d="M148.614,276.24c35.214,0,63.535-28.554,63.535-63.741l0.207-148.758C212.355,28.502,183.828,0,148.614,0
	c-35.188,0-63.742,28.502-63.742,63.741v148.758C84.873,247.688,113.426,276.24,148.614,276.24"/>
</svg>
