<?xml version="1.0" encoding="utf-8"?>
<!-- Generator: Adobe Illustrator 25.3.0, SVG Export Plug-In . SVG Version: 6.00 Build 0)  -->
<svg version="1.1" id="Слой_1" xmlns="http://www.w3.org/2000/svg" xmlns:xlink="http://www.w3.org/1999/xlink" x="0px" y="0px" width="32px" height="32px" viewBox="0 0 32 32" enable-background="new 0 0 32 32" xml:space="preserve">
<path fill="#00836F" d="M16,27.5c-0.2,0-0.3,0-0.5-0.1C15,27.1,3,20.3,3,11.9c0-2,0.7-3.8,2.1-5.3c1.4-1.4,3.2-2.2,5.1-2.2
	c2.4,0,4.5,1,5.8,2.8c1.3-1.8,3.4-2.8,5.8-2.8c1.9,0,3.8,0.8,5.1,2.2C28.3,8.1,29,10,29,11.9c0,8.4-12,15.1-12.5,15.4
	C16.3,27.5,16.2,27.5,16,27.5z M10.2,6.5c-1.4,0-2.7,0.6-3.7,1.6c-1,1-1.5,2.4-1.5,3.9c0,6.3,8.8,12.1,11,13.4
	c2.2-1.3,11-7.1,11-13.4c0-1.4-0.6-2.8-1.5-3.9c-1-1-2.3-1.6-3.7-1.6c-2.2,0-4.1,1.2-4.8,3.2c-0.2,0.4-0.5,0.6-0.9,0.6
	c-0.4,0-0.8-0.3-0.9-0.6C14.3,7.7,12.4,6.5,10.2,6.5z"/>
</svg>
