<svg width="40" height="41" viewBox="0 0 40 41" fill="none" xmlns="http://www.w3.org/2000/svg">
<path d="M23.246 27.4398C25.0229 26.8961 26.6929 26.2066 28.1187 25.3047C28.1281 25.2987 28.1376 25.293 28.1472 25.2876C28.8394 24.8914 29.1384 23.7945 28.5968 22.8931L28.5966 22.8928C28.1179 22.0953 27.0884 21.8249 26.1253 22.4263L26.1187 22.4304L26.1187 22.4304C24.27 23.5585 22.1462 24.1554 19.9805 24.1554C17.8148 24.1554 15.691 23.5585 13.8423 22.4304L13.8357 22.4263L13.8357 22.4263C12.9056 21.8454 11.936 22.0651 11.3644 22.8924C10.8801 23.8376 11.1562 24.896 11.8706 25.2766C11.881 25.2821 11.8912 25.2878 11.9013 25.2938C13.4504 26.2147 15.108 26.9393 16.836 27.451C17.0927 27.5271 17.2895 27.7343 17.3522 27.9946C17.4149 28.255 17.334 28.529 17.1399 28.7136L12.2087 33.4041C11.5279 34.1558 11.5529 35.1879 12.1828 35.839C12.6232 36.2054 13.0838 36.3568 13.4297 36.3568C13.9773 36.3568 14.4166 36.1798 14.7356 35.8619C14.7363 35.8612 14.737 35.8605 14.7377 35.8598L19.4433 31.0759C19.7337 30.7806 20.2085 30.7767 20.5038 31.067L25.3738 35.8554C25.3982 35.8794 25.421 35.905 25.4419 35.9321C25.9061 36.5339 26.9635 36.646 27.7514 35.8595C27.7514 35.8594 27.7514 35.8594 27.7514 35.8594M23.246 27.4398L28.2813 32.8802C29.2397 33.9152 29.2397 35.4318 28.2813 36.3902L27.7514 35.8594M23.246 27.4398C23.1095 27.4702 22.98 27.5391 22.8748 27.6461C22.5861 27.9398 22.5883 28.4112 22.8795 28.7023L22.8812 28.704C22.886 28.7088 22.8908 28.7135 22.8957 28.7182L27.7441 33.4039M23.246 27.4398L27.7441 33.4039M27.7514 35.8594C28.4016 35.2087 28.4333 34.1617 27.7441 33.4039M27.7514 35.8594L27.7441 33.4039M15.7163 12.5335C15.7163 10.1669 17.5259 8.11183 19.9763 8.11183C22.5199 8.11183 24.2416 10.1758 24.2397 12.5341M15.7163 12.5335L24.2397 12.5341M15.7163 12.5335C15.7163 14.9413 17.569 16.7935 19.978 16.7935M15.7163 12.5335L19.978 16.7935M24.2397 12.5341C24.2394 14.9302 22.4781 16.7935 19.978 16.7935M24.2397 12.5341L19.978 16.7935M20.0204 20.3198C20.0057 20.3189 19.991 20.3185 19.9763 20.3185C15.6772 20.3185 12.1047 16.7393 12.1047 12.5318C12.1047 8.15525 15.6863 4.5835 19.978 4.5835C24.4201 4.5835 27.849 8.14368 27.8497 12.5306C27.8416 14.603 27.0113 16.5875 25.541 18.048C24.0752 19.5042 22.0929 20.3208 20.0273 20.3202L20.0204 20.3198Z" stroke="black" stroke-width="1.5" stroke-linejoin="round"/>
</svg>
