<svg version="1.1" id="Layer_1" xmlns="http://www.w3.org/2000/svg" xmlns:xlink="http://www.w3.org/1999/xlink" x="0px" y="0px"
	 width="38px" height="24px" viewBox="0 0 38 24" enable-background="new 0 0 38 24" xml:space="preserve">
<path d="M37.5,24h-17L20,23.5v-23L20.5,0h10.999l0.354,0.147l0.001,0l6,6L38,6.5v17L37.5,24z M21,23h16V7h-5.5
	L31,6.5V1H21V23z M32,6h4.293L32,1.708V6z"/>
<path d="M17.5,24h-17L0,23.5v-23L0.5,0h10.999l0.354,0.147l0.001,0l6,6L18,6.5v17L17.5,24z M1,23h16V7h-5.5L11,6.5V1
	H1V23z M12,6h4.293L12,1.708V6z"/>
</svg>
