<svg version="1.1" id="Layer_1" xmlns="http://www.w3.org/2000/svg" xmlns:xlink="http://www.w3.org/1999/xlink" x="0px" y="0px"
	 width="24px" height="22.656px" viewBox="0 0 24 22.656" enable-background="new 0 0 24 22.656" xml:space="preserve">
<path d="M23.799,17.232c-0.854-1.633-4.596-2.672-7.898-2.869c-0.299-0.338-0.602-0.693-0.912-1.067
		C12.149,9.861,11,4.87,10.57,2.225c-0.051-0.561-0.107-1.026-0.154-1.373C10.378,0.576,10.298,0,9.731,0
		c-0.181,0-0.355,0.082-0.48,0.229C9.05,0.473,9.08,0.735,9.115,1.037c0.041,0.347,0.101,0.812,0.188,1.341
		c0.241,2.685,0.355,7.796-1.597,11.858c-0.204,0.423-0.407,0.829-0.608,1.217c-3.654,1.125-6.603,3.13-7.034,4.793
		c-0.157,0.602-0.021,1.18,0.383,1.627c0.471,0.52,1.025,0.783,1.65,0.783c1.729,0,3.699-2.037,5.856-6.054
		c0.961-0.269,1.914-0.453,2.836-0.553c0.359-0.038,0.94-0.118,1.298-0.177c0.984-0.16,2.098-0.225,3.243-0.186
		c2.648,2.914,4.814,4.391,6.438,4.391c0.871-0.001,1.593-0.45,2.029-1.266C24.066,18.308,24.068,17.746,23.799,17.232z
		 M22.684,17.887c0.055,0.105,0.055,0.162,0.001,0.262c-0.212,0.397-0.513,0.582-0.945,0.582l0,0c-1.015,0-2.574-1.016-4.441-2.879
		C20.188,16.236,22.304,17.162,22.684,17.887z M6.119,17.214c-1.544,2.579-3.021,4.092-4.023,4.092
		c-0.271,0-0.502-0.116-0.728-0.366c-0.093-0.103-0.113-0.189-0.075-0.334C1.516,19.748,3.387,18.279,6.119,17.214L6.119,17.214z
		 M8.762,15.016c0.026-0.055,0.054-0.111,0.08-0.166c0.957-1.992,1.551-4.378,1.771-7.114c0.878,2.602,2.023,4.765,3.415,6.449
		c0.041,0.05,0.084,0.101,0.125,0.151c-0.804,0.021-1.562,0.09-2.261,0.205c-0.34,0.055-0.891,0.131-1.231,0.168
		C10.04,14.773,9.404,14.877,8.762,15.016z"/>
</svg>
