<svg version="1.1" id="Layer_1" xmlns="http://www.w3.org/2000/svg" xmlns:xlink="http://www.w3.org/1999/xlink" x="0px" y="0px"
	 width="25.9px" height="25.8px" viewBox="132.08 432.073 25.9 25.8" enable-background="new 132.08 432.073 25.9 25.8"
	 xml:space="preserve">
<path d="M144.98,457.872c-7.102,0-12.9-5.801-12.9-12.899c0-7.1,5.8-12.9,12.9-12.9c5.398,0,10,3.4,11.898,8.603l-1.8,0.6
	c-1.6-4.6-5.5-7.4-10.1-7.4c-6.102,0-11.102,5-11.102,11.101c0,6.1,5,11.1,11.102,11.1c4.3,0,8.3-2.5,10.1-6.5l1.701,0.802
	C154.68,454.973,149.98,457.872,144.98,457.872L144.98,457.872z"/>
<polygon points="157.98,441.973 149.98,441.973 149.98,439.973 155.98,439.973 155.98,433.973 157.98,433.973 "/>
</svg>
