<svg version="1.1" id="Layer_1" xmlns="http://www.w3.org/2000/svg" xmlns:xlink="http://www.w3.org/1999/xlink" x="0px" y="0px"
	 width="23.084px" height="24px" viewBox="0 0 23.084 24" enable-background="new 0 0 23.084 24" xml:space="preserve">
<path d="M23.015,18.804V6.376c0-1.657-0.875-2.532-2.532-2.532h-2.117V3.108c0-1.427-0.184-2.9-1.979-3.038
	c-1.288-0.092-2.623,0-3.912,0H5.478c-1.243,0-2.624-0.184-3.867,0.046C0,0.438,0,1.957,0,3.246v17.951
	c0,1.381,0.322,2.67,1.979,2.762c1.381,0.092,2.809,0,4.189,0h14.545c1.059,0,2.025-0.46,2.256-1.611
	C23.198,21.289,23.015,19.955,23.015,18.804L23.015,18.804z M21.726,22.348c-0.414,0.783-1.795,0.507-2.577,0.507H3.176
	c-0.967,0-1.934,0.093-2.025-1.15c-0.092-1.289,0-2.624,0-3.913V5.409c0-1.059-0.139-2.209,0-3.268
	c0.184-1.243,1.841-0.875,2.762-0.875h11.415c0.322,0,0.69-0.046,1.013,0c0.783,0.138,0.829,0.69,0.829,1.289v16.847
	c0,0.736,1.15,0.736,1.15,0V4.995h1.795c0.783,0,1.565-0.092,1.703,0.921c0.185,1.243,0,2.577,0,3.82v11.508
	C21.863,21.658,21.91,22.025,21.726,22.348L21.726,22.348z M12.934,6.146H5.063c-0.736,0-0.736,1.151,0,1.151h7.871
	C13.67,7.296,13.67,6.146,12.934,6.146L12.934,6.146z M12.934,11.301H5.063c-0.736,0-0.736,1.15,0,1.15h7.871
	C13.67,12.452,13.67,11.301,12.934,11.301L12.934,11.301z M12.934,16.457H5.063c-0.736,0-0.736,1.15,0,1.15h7.871
	C13.67,17.607,13.67,16.457,12.934,16.457L12.934,16.457z"/>
</svg>
