<svg version="1.1" xmlns="http://www.w3.org/2000/svg" xmlns:xlink="http://www.w3.org/1999/xlink" x="0px" y="0px"
	 width="21.441px" height="24px" viewBox="0 0 21.441 24" enable-background="new 0 0 21.441 24" xml:space="preserve">
<path d="M0.059,7.935c-0.271,2.375,0.398,4.71,1.888,6.581c1.706,2.145,4.26,3.375,7.005,3.375
	c2.04,0,3.964-0.672,5.563-1.945c1.87-1.488,3.048-3.615,3.318-5.989s-0.399-4.712-1.888-6.582C14.238,1.23,11.685,0,8.939,0
	C6.9,0,4.976,0.672,3.377,1.947C1.507,3.433,0.328,5.562,0.059,7.935L0.059,7.935z M2.592,14c-1.35-1.696-1.959-3.817-1.715-5.972
	c0.246-2.154,1.315-4.085,3.012-5.436c1.452-1.156,3.199-1.765,5.051-1.765c2.491,0,4.81,1.115,6.358,3.064
	c1.352,1.696,1.959,3.818,1.715,5.973c-0.245,2.154-1.315,4.085-3.012,5.434c-1.453,1.155-3.199,1.767-5.05,1.767
	C6.458,17.064,4.141,15.947,2.592,14L2.592,14z M4.472,3.988c0.142,0.177,0.401,0.206,0.581,0.065
	c2.696-2.147,6.639-1.697,8.786,1c1.039,1.307,1.509,2.941,1.319,4.599c-0.188,1.66-1.013,3.147-2.319,4.186
	c-0.178,0.143-0.208,0.402-0.064,0.58c0.08,0.104,0.201,0.156,0.322,0.156c0.091,0,0.182-0.029,0.257-0.09
	c1.48-1.178,2.412-2.859,2.626-4.74c0.214-1.878-0.316-3.728-1.495-5.206c-2.431-3.056-6.892-3.562-9.946-1.131
	C4.358,3.548,4.328,3.808,4.472,3.988L4.472,3.988z M4.052,12.839c-0.141-0.177-0.401-0.208-0.581-0.066
	c-0.178,0.144-0.207,0.403-0.064,0.581c0.42,0.528,0.912,0.992,1.459,1.379c0.072,0.051,0.157,0.078,0.237,0.078
	c0.132,0,0.259-0.062,0.34-0.176c0.131-0.188,0.087-0.444-0.1-0.575C4.859,13.717,4.426,13.307,4.052,12.839L4.052,12.839z
	 M20.492,23.455c1.131-0.901,1.272-2.616,0.313-3.82l-3.886-4.884c-0.141-0.177-0.401-0.208-0.581-0.066
	c-0.177,0.144-0.207,0.403-0.064,0.581l3.886,4.884c0.676,0.849,0.593,2.041-0.182,2.66c-0.371,0.294-0.848,0.416-1.34,0.343
	c-0.504-0.076-0.964-0.349-1.295-0.765l-3.885-4.882c-0.141-0.179-0.401-0.207-0.579-0.066c-0.18,0.142-0.209,0.402-0.066,0.582
	l3.885,4.881c0.46,0.581,1.105,0.959,1.815,1.064C18.65,23.99,18.787,24,18.92,24C19.497,24,20.044,23.813,20.492,23.455
	L20.492,23.455z"/>
</svg>
