<svg version="1.1" id="Layer_1" xmlns="http://www.w3.org/2000/svg" xmlns:xlink="http://www.w3.org/1999/xlink" x="0px" y="0px"
	 width="18px" height="19px" viewBox="0 0 18 19" enable-background="new 0 0 18 19" xml:space="preserve">
<path d="M14.342,12.735c-1.019,0-1.928,0.468-2.516,1.2l-5.644-3.107c0.144-0.357,0.226-0.744,0.226-1.155s-0.082-0.802-0.23-1.164
	l5.771-3.297c0.579,0.642,1.435,1.048,2.388,1.048c1.764,0,3.203-1.406,3.203-3.132S16.102,0,14.338,0s-3.201,1.406-3.201,3.132
	c0,0.3,0.045,0.588,0.123,0.859L5.36,7.362C4.789,6.853,4.033,6.54,3.202,6.54C1.439,6.54,0,7.946,0,9.673
	c0,1.726,1.435,3.132,3.202,3.132c0.834,0,1.595-0.313,2.167-0.826l5.846,3.215c-0.05,0.218-0.074,0.439-0.074,0.674
	c0,1.727,1.434,3.133,3.201,3.133s3.203-1.406,3.203-3.133S16.109,12.735,14.342,12.735z M14.338,1.397
	c0.995,0,1.805,0.777,1.805,1.735c0,0.958-0.81,1.735-1.805,1.735c-0.994,0-1.805-0.777-1.805-1.735
	C12.533,2.175,13.344,1.397,14.338,1.397z M3.198,11.403c-0.995,0-1.805-0.776-1.805-1.735c0-0.958,0.81-1.735,1.805-1.735
	s1.805,0.777,1.805,1.735C5.003,10.627,4.193,11.403,3.198,11.403z M14.338,17.594c-0.99,0-1.805-0.776-1.805-1.734
	c0-0.957,0.811-1.73,1.805-1.73c0.995,0,1.805,0.777,1.805,1.734C16.143,16.821,15.329,17.594,14.338,17.594z"/>
</svg>
