<svg version="1.1" xmlns="http://www.w3.org/2000/svg" xmlns:xlink="http://www.w3.org/1999/xlink" x="0px" y="0px"
	 width="500px" height="500px" viewBox="0 0 500 500" enable-background="new 0 0 500 500" xml:space="preserve">
<path d="M250,500C112.1,500,0,387.8,0,250C0,112.1,112.1,0,250,0c137.8,0,250,112.1,250,250
	C500,387.8,387.8,500,250,500z M250,29.4C128.4,29.4,29.4,128.4,29.4,250S128.4,470.6,250,470.6S470.6,371.6,470.6,250
	S371.6,29.4,250,29.4z"/>
<path d="M228.5,301v-8.5c0-12.3,1.9-22.4,5.7-30.3c3.8-7.9,10.8-16.3,21.1-25.1c14.3-12.1,23.3-21.2,27-27.2
	c3.7-6.1,5.6-13.5,5.6-22.1c0-10.7-3.5-19-10.3-24.8c-6.9-5.8-16.8-8.7-29.7-8.7c-8.3,0-16.4,1-24.2,2.9c-7.9,2-16.9,5.5-27.1,10.7
	l-9.3-21.3c19.8-10.4,40.6-15.6,62.2-15.6c20,0,35.6,4.9,46.7,14.8c11.1,9.9,16.7,23.8,16.7,41.7c0,7.7-1,14.4-3.1,20.2
	c-2,5.8-5,11.3-9,16.5c-4,5.2-12.6,13.6-25.8,25.1c-10.6,9.1-17.6,16.5-21,22.5c-3.4,6-5.1,14-5.1,23.9v5.2L228.5,301L228.5,301z
	 M220.8,347.8c0-14.3,6.3-21.4,18.9-21.4c6.1,0,10.8,1.8,14.1,5.5c3.3,3.7,5,9,5,15.9c0,6.7-1.7,12-5,15.7c-3.4,3.7-8.1,5.6-14,5.6
	c-5.4,0-10-1.7-13.6-5C222.5,360.8,220.8,355.3,220.8,347.8z"/>
</svg>
