<svg version="1.1" id="Layer_1" xmlns="http://www.w3.org/2000/svg" xmlns:xlink="http://www.w3.org/1999/xlink" x="0px" y="0px"
	 width="24px" height="24px" viewBox="0 0 24 24" enable-background="new 0 0 24 24" xml:space="preserve">
<path d="M23.544,9.439h-1.146c-0.334,0-0.89-0.497-1.243-1.325c-0.352-0.828-0.321-1.573-0.09-1.815l0.797-0.824
		c0.176-0.182,0.17-0.469-0.011-0.645l-3.028-2.926c-0.087-0.084-0.212-0.131-0.325-0.127c-0.122,0.002-0.235,0.051-0.32,0.14
		l-0.794,0.824c-0.261,0.269-1.028,0.29-1.656,0.035c-0.654-0.263-1.166-0.779-1.166-1.174V0.456C14.561,0.205,14.358,0,14.107,0
		H9.893C9.642,0,9.438,0.205,9.438,0.456v1.146c0,0.396-0.512,0.914-1.163,1.179C7.65,3.035,6.885,3.015,6.622,2.744L5.823,1.918
		C5.738,1.829,5.625,1.78,5.505,1.778C5.394,1.792,5.267,1.822,5.18,1.905l-3.03,2.926C1.969,5.006,1.965,5.293,2.139,5.476
		l0.796,0.824c0.233,0.243,0.263,0.988-0.089,1.815c-0.354,0.828-0.91,1.325-1.244,1.325H0.456C0.204,9.439,0,9.642,0,9.895v4.212
		c0,0.251,0.204,0.456,0.456,0.456h1.146c0.334,0,0.891,0.494,1.244,1.323c0.352,0.828,0.32,1.574,0.089,1.814l-0.796,0.823
		c-0.085,0.087-0.13,0.204-0.127,0.324c0.002,0.122,0.051,0.235,0.138,0.321l3.03,2.926c0.087,0.084,0.205,0.119,0.325,0.129
		c0.12-0.002,0.235-0.054,0.318-0.141l0.796-0.823c0.261-0.271,1.026-0.291,1.653-0.038c0.654,0.264,1.166,0.779,1.166,1.176v1.146
		C9.438,23.795,9.642,24,9.893,24h4.215c0.251,0,0.453-0.205,0.453-0.456v-1.146c0-0.396,0.512-0.915,1.164-1.18
		c0.625-0.256,1.391-0.234,1.653,0.038l0.799,0.827c0.176,0.181,0.466,0.188,0.646,0.012l3.028-2.926
		c0.181-0.176,0.187-0.466,0.011-0.646l-0.797-0.825c-0.233-0.24-0.262-0.986,0.09-1.814c0.354-0.827,0.909-1.323,1.243-1.323
		h1.146c0.251,0,0.456-0.203,0.456-0.456V9.893C24,9.642,23.795,9.439,23.544,9.439L23.544,9.439z M23.088,13.65h-0.69
		c-0.945,0-1.713,1.013-2.082,1.879c-0.367,0.865-0.565,2.121,0.096,2.804l0.479,0.498l-2.375,2.292l-0.48-0.498
		c-0.313-0.325-0.81-0.506-1.393-0.506c-0.416,0-0.853,0.09-1.262,0.256c-0.832,0.338-1.729,1.117-1.729,2.023v0.691h-3.303v-0.691
		c0-0.908-0.898-1.686-1.735-2.021c-0.41-0.165-0.843-0.252-1.262-0.252c-0.583,0-1.076,0.179-1.389,0.501l-0.479,0.496
		L3.11,18.831l0.479-0.496c0.659-0.684,0.463-1.938,0.094-2.804C3.315,14.663,2.548,13.65,1.6,13.65H0.912v-3.301h0.689
		c0.946,0,1.714-1.012,2.083-1.878c0.367-0.867,0.565-2.12-0.093-2.804L3.11,5.169l2.374-2.292l0.481,0.499
		C6.279,3.7,6.773,3.881,7.356,3.881c0.418,0,0.854-0.087,1.264-0.254c0.832-0.34,1.729-1.119,1.729-2.024v-0.69h3.303v0.69
		c0,0.907,0.898,1.684,1.735,2.021c0.409,0.167,0.846,0.253,1.262,0.253c0.583,0,1.076-0.178,1.391-0.503l0.479-0.496l2.374,2.292
		l-0.48,0.498c-0.659,0.684-0.463,1.937-0.094,2.804c0.367,0.866,1.135,1.878,2.08,1.878h0.692v3.301H23.088z M12,8.58
		c-1.885,0-3.42,1.535-3.42,3.42c0,1.884,1.535,3.419,3.42,3.419s3.42-1.535,3.42-3.419C15.42,10.115,13.885,8.58,12,8.58L12,8.58z
		 M12,14.508c-1.384,0-2.508-1.124-2.508-2.507c0-1.384,1.124-2.508,2.508-2.508s2.508,1.124,2.508,2.508
		C14.508,13.384,13.384,14.508,12,14.508L12,14.508z M12,5.772c-0.252,0-0.456,0.205-0.456,0.457c0,0.251,0.204,0.456,0.456,0.456
		c2.931,0,5.315,2.385,5.315,5.316c0,0.251,0.205,0.456,0.456,0.456c0.252,0,0.457-0.205,0.457-0.456
		C18.229,8.566,15.434,5.772,12,5.772L12,5.772z M12,17.316c-2.931,0-5.316-2.387-5.316-5.316c0-0.252-0.204-0.457-0.455-0.457
		c-0.252,0-0.456,0.205-0.456,0.457c0,3.433,2.794,6.228,6.228,6.228c0.252,0,0.456-0.205,0.456-0.457
		C12.456,17.521,12.252,17.316,12,17.316L12,17.316z"/>
</svg>
