<svg version="1.1" id="Layer_1" xmlns="http://www.w3.org/2000/svg" xmlns:xlink="http://www.w3.org/1999/xlink" x="0px" y="0px"
	 width="32px" height="30px" viewBox="0 2 32 30" enable-background="new 0 2 32 30" xml:space="preserve">
<path d="M30.5,24H30v-6.5c0-1.93-1.57-3.5-3.5-3.5H18v-4h0.5c0.825,0,1.5-0.675,1.5-1.5v-5C20,2.675,19.325,2,18.5,2h-5
	C12.675,2,12,2.675,12,3.5v5c0,0.825,0.675,1.5,1.5,1.5H14v4H5.5C3.57,14,2,15.57,2,17.5V24H1.5C0.675,24,0,24.675,0,25.5v5
	C0,31.325,0.675,32,1.5,32h5C7.325,32,8,31.325,8,30.5v-5C8,24.675,7.325,24,6.5,24H6v-6h8v6h-0.5c-0.825,0-1.5,0.675-1.5,1.5v5
	c0,0.825,0.675,1.5,1.5,1.5h5c0.825,0,1.5-0.675,1.5-1.5v-5c0-0.825-0.675-1.5-1.5-1.5H18v-6h8v6h-0.5c-0.825,0-1.5,0.675-1.5,1.5v5
	c0,0.825,0.675,1.5,1.5,1.5h5c0.825,0,1.5-0.675,1.5-1.5v-5C32,24.675,31.325,24,30.5,24z M6,30H2v-4h4V30z M18,30h-4v-4h4V30z
	 M14,8V4h4v4H14z M30,30h-4v-4h4V30z"/>
</svg>
