<svg version="1.1" id="Layer_1" xmlns="http://www.w3.org/2000/svg" xmlns:xlink="http://www.w3.org/1999/xlink" x="0px" y="0px"
	 width="595.759px" height="336.162px" viewBox="0 251.112 595.759 336.162" enable-background="new 0 251.112 595.759 336.162"
	 xml:space="preserve">
<path d="M591.779,557.511c0-1.752-1.75-3.502-1.75-3.502c-10.506-19.26-29.767-42.021-59.529-68.281l0,0l0,0l0,0l0,0
	c-14.006-12.256-21.01-21.012-24.512-26.264c-7.002-8.754-7.002-17.51-3.502-24.512c1.752-7.004,12.256-19.26,28.014-40.27
	c5.252-12.257,12.256-21.011,17.508-28.014c35.019-47.271,50.775-77.036,47.273-91.043l-1.752-3.502
	c-1.75-1.751-5.252-3.501-8.754-5.252c-5.253-1.751-12.257-1.751-19.259,0h-89.293c-1.75,0-3.502,0-7.004,0
	c-3.5,1.751-5.252,1.751-5.252,1.751h-1.75l-1.752,1.75c-1.75,0-1.75,1.751-3.502,3.502c0,1.751-1.75,3.502-1.75,5.253
	c-10.506,24.512-21.01,49.021-33.266,70.032c-7.004,12.256-14.006,24.512-21.011,33.266c-7.004,8.755-12.256,15.759-15.758,21.011
	s-8.754,8.754-12.256,10.506c-3.502,3.5-7.004,3.5-8.754,3.5s-3.502,0-5.252-1.75c-3.502-1.75-5.252-5.252-7.004-7.004
	c-1.75-3.502-3.502-7.002-3.502-12.256c0-5.252-1.75-8.754-1.75-12.256c0-3.501,0-8.754,0-15.757c0-7.004,0-10.505,0-12.256
	c0-7.004,0-15.759,0-26.263c0-8.754,0-15.758,0-21.01c0-5.254,0-10.506,0-17.509c0-5.253,0-10.505-1.752-14.007
	c0-3.502-1.75-7.004-3.5-10.505c-1.752-3.503-3.502-5.253-7.004-7.005c-3.502-1.75-7.004-3.5-10.507-3.5
	c-7.002-3.502-21.01-5.254-36.767-5.254c-38.518,0-63.03,1.752-73.535,7.004c-3.501,1.75-8.754,5.253-12.256,8.755
	c-3.501,5.252-3.501,7.003-1.751,7.003c12.256,1.751,21.01,7.004,26.263,14.007l1.75,5.252c1.751,3.502,3.502,7.005,3.502,14.007
	c1.751,7.004,1.751,14.008,3.501,22.762c1.751,15.758,1.751,28.014,0,38.519s-1.751,19.259-3.501,24.513
	c-1.751,5.252-1.751,10.504-3.502,14.006c-1.75,3.502-3.501,5.252-3.501,7.004l-1.751,1.75c-3.501,1.75-5.252,1.75-8.754,1.75
	s-7.003-1.75-10.505-3.5c-3.502-3.502-8.754-7.004-12.256-12.256c-5.252-5.254-8.754-12.257-15.757-21.011
	c-5.252-10.505-10.505-21.011-17.508-33.267l-5.252-8.754c-1.751-5.252-7.003-14.006-12.256-24.512
	c-5.252-12.256-10.505-22.761-14.006-33.266c-1.751-3.502-3.502-7.004-7.003-8.755l-1.751-1.751c-1.751,0-3.501-1.75-5.252-1.75
	c-1.751-1.751-5.252-1.751-7.003-1.751h-85.79c-8.754,0-14.007,1.751-17.508,5.252v1.751C0,275.627,0,277.378,0,279.129
	s0,5.252,1.751,8.754c12.256,29.765,26.262,57.777,40.269,84.039c14.006,28.015,28.013,49.022,38.518,64.78
	s21.01,31.516,33.266,47.273c10.505,14.006,19.259,24.51,22.761,28.012c3.501,3.502,7.003,7.004,8.754,8.754l7.003,7.004
	c5.252,5.252,12.256,10.506,21.01,17.51s21.01,14.006,31.515,21.01c12.255,7.004,24.511,12.256,40.269,15.758
	c15.758,3.502,29.764,5.252,45.521,5.252h35.017c7.002,0,12.256-3.502,15.758-7.004l1.75-1.75c0-1.752,1.75-3.502,1.75-5.252
	c0-1.752,1.752-5.254,1.752-8.756c0-8.754,0-17.508,1.75-24.51c1.752-7.006,3.502-12.258,5.254-15.76
	c1.75-3.502,3.5-7.002,7.002-8.754c1.752-1.75,3.502-3.502,5.252-5.252c1.752,0,1.752,0,1.752-1.752
	c5.252-1.75,10.504,0,17.508,5.254c7.005,5.252,12.257,10.504,19.261,17.508c5.252,7.004,12.256,15.758,21.01,24.512
	s15.758,15.758,21.01,19.26l7.004,3.502c3.5,1.75,8.754,5.252,15.756,7.004c7.004,1.75,12.257,1.75,17.511,1.75l78.787-1.75
	c7.002,0,14.006-1.752,17.508-3.502c3.502-1.752,7.004-5.254,7.004-8.754c0-3.502,1.75-7.004,0-10.506
	C593.529,562.763,593.529,559.261,591.779,557.511z"/>
</svg>
