<svg version="1.1" id="Layer_1" xmlns="http://www.w3.org/2000/svg" xmlns:xlink="http://www.w3.org/1999/xlink" x="0px" y="0px"
	 width="595.281px" height="744.101px" viewBox="0 48.895 595.281 744.101" enable-background="new 0 48.895 595.281 744.101"
	 xml:space="preserve">
<path d="M0,48.895h262.393c54.829,0,93.991,3.916,125.323,7.832c27.414,3.917,54.828,11.749,78.326,27.414
	c27.414,15.666,46.996,35.247,58.744,58.745s19.582,50.912,19.582,82.243c0,35.246-7.834,70.493-27.414,97.907
	c-19.582,27.414-43.08,50.912-74.41,62.661v3.917c46.996,7.832,82.242,27.414,109.656,58.744
	c27.414,31.331,43.08,70.494,43.08,121.406c0,35.247-7.834,70.494-19.582,97.908c-15.666,27.414-31.33,50.912-54.828,70.493
	c-27.414,23.498-58.744,39.163-93.992,46.996c-35.246,3.916-78.326,7.833-129.238,7.833H0V48.895L0,48.895z M184.067,185.966
	v156.653h23.498c31.331,0,54.828,0,66.577,0s27.414-3.916,39.164-11.749c19.58-7.833,27.414-15.665,35.246-27.414
	c3.916-11.749,7.832-27.414,7.832-43.08c0-11.749-3.916-23.497-7.832-35.246c-7.832-15.666-19.582-23.498-31.33-31.331
	c-11.75-3.916-27.415-7.833-43.08-7.833c-15.665,0-43.08,0-74.41,0H184.067L184.067,185.966z M184.067,471.857v187.983h11.749
	c46.996,0,82.243,0,101.824,0c19.582,0,39.164-3.916,58.744-11.749c15.666-7.832,27.414-19.581,35.248-31.33
	c7.832-15.666,11.748-31.331,11.748-46.996c0-23.498-3.916-39.163-15.664-54.828c-7.834-11.749-23.498-23.498-43.08-31.331
	c-11.75-3.916-27.414-7.832-46.996-7.832c-19.582,0-46.996,0-78.326,0h-35.247V471.857z"/>
</svg>
