<svg version="1.1" id="Layer_1" xmlns="http://www.w3.org/2000/svg" xmlns:xlink="http://www.w3.org/1999/xlink" x="0px" y="0px"
	 width="597.415px" height="595.28px" viewBox="104.299 -4656.31 597.415 595.28"
	 enable-background="new 104.299 -4656.31 597.415 595.28" xml:space="preserve">
<path d="M277.123-4656.31l-40.539,78.943l-40.539-78.943h-51.207l72.543,125.884l0,0v98.146h36.271v-98.146l0,0l72.543-125.884
	H277.123z"/>
<path d="M385.937-4581.633c10.669,0,19.203,8.535,19.203,19.203v74.677c0,10.668-8.534,19.203-19.203,19.203
	c-10.668,0-19.202-8.535-19.202-19.203v-74.677C366.734-4573.098,375.269-4581.633,385.937-4581.633z M385.937-4620.038
	c-29.87,0-55.475,25.604-55.475,55.475v74.677c0,29.871,25.604,55.475,55.475,55.475c29.871,0,55.476-25.604,55.476-55.475v-74.677
	C441.412-4594.434,415.808-4620.038,385.937-4620.038L385.937-4620.038z"/>
<path d="M552.359-4620.038v147.222c-17.068,12.801-36.271,21.336-36.271-25.604v-119.481h-36.271v128.018l0,0
	c0,29.871,6.4,85.346,74.678,40.539v17.068h36.271v-185.625H552.36L552.359-4620.038L552.359-4620.038z"/>
<path d="M609.967-4246.653c-10.668,0-19.202,8.535-19.202,19.203v19.203h36.271v-19.203
	C627.037-4238.12,618.501-4246.653,609.967-4246.653z"/>
<path d="M441.412-4227.452v98.146c12.801,12.802,36.271,14.937,36.271-4.268s0-68.275,0-87.479
	C479.816-4240.253,460.614-4246.653,441.412-4227.452z"/>
<path d="M699.58-4317.063c-2.134-21.336-8.535-38.404-23.471-53.34c-12.802-12.802-32.005-21.337-53.341-21.337
	c-40.539-2.133-134.418-2.133-215.495-2.133s-181.357,0-221.896,2.133c-21.336,2.134-38.405,8.535-53.34,21.337
	c-12.802,12.801-21.336,32.004-23.47,53.34c-2.134,42.673-4.268,59.741-4.268,81.077c0,21.337,2.134,55.474,4.268,98.146
	c2.134,21.336,8.534,38.405,23.47,53.342c12.802,12.801,32.004,21.336,53.341,21.336c40.539,2.133,140.819,2.133,221.896,2.133
	s174.957,0,215.496-2.133c21.336-2.134,38.404-8.535,53.34-21.336c12.803-12.803,21.337-32.006,23.471-53.342
	c2.133-36.271,2.133-68.275,2.133-98.146C701.712-4265.854,701.712-4280.793,699.58-4317.063z M217.381-4097.301H181.11v-185.625
	h-36.271v-36.271h110.948v36.271h-36.271v185.625H217.381z M366.734-4097.301h-36.271v-17.067
	c-70.409,40.539-74.676,2.133-74.676-29.871l0,0v-102.414h36.271v102.414c0,23.469,21.335,21.336,36.272,6.399v-108.813h36.271
	v149.354L366.734-4097.301L366.734-4097.301z M516.087-4135.705c0,38.404-40.538,51.207-74.676,19.203v17.068H405.14v-224.03h36.271
	v59.741c36.271-36.271,74.676-23.47,74.676,14.937S516.087-4176.245,516.087-4135.705z M665.441-4210.382v19.203h-74.677v36.271
	c0,10.668,8.534,19.203,19.202,19.203s19.202-8.535,19.202-19.203v-19.203h36.271v19.203c0,29.871-25.604,55.474-55.475,55.474
	s-55.474-25.604-55.474-55.474v-74.678c0-29.871,25.604-55.474,55.474-55.474s55.475,25.604,55.475,55.474L665.441-4210.382
	L665.441-4210.382z"/>
</svg>
