<svg version="1.1" id="Layer_1" xmlns="http://www.w3.org/2000/svg" xmlns:xlink="http://www.w3.org/1999/xlink" x="0px" y="0px"
	 width="39.8px" height="38.5px" viewBox="0 0 39.8 38.5" enable-background="new 0 0 39.8 38.5" xml:space="preserve">
<path d="M29.1,24.1l10.3,9.7c0.5,0.5,0.5,1.3,0.1,1.8l-2.4,2.5c-0.5,0.5-1.3,0.6-1.8,0.1L25,28.5
	c-0.5-0.5-0.6-1.3-0.1-1.8l0.2-0.2L21.5,23c-4.3,3.7-10.7,4.2-15.7,0.9c-6-4-7.6-12.1-3.6-18.1s12.1-7.6,18.1-3.6
	s7.6,12.1,3.6,18.1c-0.1,0.1-0.1,0.2-0.2,0.3c-0.1,0.1-0.2,0.2-0.2,0.3l3.6,3.4l0.2-0.2C27.7,23.6,28.6,23.5,29.1,24.1z M7.4,21.4
	c4.6,3.1,10.8,1.8,13.9-2.8c3.1-4.6,1.8-10.8-2.8-13.9C13.9,1.6,7.7,2.9,4.6,7.5C1.6,12.1,2.8,18.3,7.4,21.4z"/>
<path d="M18.1,11.9h-3.9V7.9c0-0.7-0.5-1.2-1.2-1.2c-0.6,0-1.2,0.5-1.2,1.2v3.9H7.9
	c-0.6,0-1.2,0.5-1.2,1.2c0,0.6,0.5,1.2,1.2,1.2h3.9v3.9c0,0.7,0.5,1.2,1.2,1.2c0.6,0,1.2-0.5,1.2-1.2v-3.9h3.9
	c0.7,0,1.2-0.5,1.2-1.2C19.2,12.4,18.7,11.9,18.1,11.9z"/>
</svg>
